<svg width="328" height="66" viewBox="0 0 328 66" fill="none" xmlns="http://www.w3.org/2000/svg">
<path fill-rule="evenodd" clip-rule="evenodd" d="M26.05 15.5C23.3846 15.5 20.8283 16.4489 18.9436 18.1381C17.0589 19.8272 16 22.1182 16 24.507V48.5256C16 50.9144 17.0589 53.2055 18.9436 54.8945C20.8283 56.5835 23.3846 57.5325 26.05 57.5325H29.2998L37.1367 64.935C37.3822 65.1665 37.683 65.332 38.0104 65.4145L38.2048 65.4635C38.3999 65.513 38.6043 65.512 38.799 65.4615C39.2097 65.3545 39.5329 65.0375 39.6481 64.629L41.4203 58.3445C41.4974 58.0715 41.5138 57.796 41.4779 57.5325H59.55C62.2155 57.5325 64.7715 56.5835 66.6565 54.8945C68.541 53.2055 69.6 50.9144 69.6 48.5256V43.7639L77.2815 50.6482C77.75 51.068 78.347 51.3538 78.9965 51.4696C79.6465 51.5854 80.32 51.5259 80.932 51.2987C81.544 51.0715 82.067 50.6868 82.435 50.1932C82.8035 49.6996 83 49.1193 83 48.5256V24.507C83 23.9132 82.8035 23.3329 82.435 22.8393C82.067 22.3457 81.544 21.961 80.932 21.7338C80.32 21.5066 79.6465 21.4472 78.9965 21.563C78.347 21.6788 77.75 21.9646 77.2815 22.3843L69.6 29.2687V24.507C69.6 22.1182 68.541 19.8272 66.6565 18.1381C64.7715 16.4489 62.2155 15.5 59.55 15.5H26.05ZM153.368 17.2215C152.73 18.1144 151.581 19.1348 149.154 19.1348C146.303 19.1348 142.156 18.5999 137.758 18.0327C132.795 17.3926 127.513 16.7113 123.415 16.7113C111.855 16.7113 104 23.9817 104 33.2292C104 40.2445 109.429 43.6884 114.538 43.6884C120.861 43.6884 124.501 38.4588 124.501 35.3975C124.501 34.3134 124.054 33.8669 123.607 33.8669C123.352 33.8669 123.16 33.9945 122.905 34.1858C122.394 34.5685 120.413 35.7164 117.923 35.7164C113.963 35.7164 111.728 32.7827 111.728 29.1475C111.728 24.3644 115.623 20.1552 121.755 20.1552C125.842 20.1552 130.568 21.9409 135.166 23.7904C131.718 28.2547 129.674 34.5047 128.013 40.6909C126.871 40.6501 126.145 40.401 125.637 40.2265C125.35 40.1279 125.132 40.0531 124.948 40.0531C124.565 40.0531 124.31 40.4996 124.31 40.946C124.31 42.3491 125.459 43.3695 127.184 44.0072L127.074 44.4335C124.694 53.6943 122.627 61.7366 117.029 61.7366C114.794 61.7366 113.26 60.3336 113.26 58.1656C113.26 56.3475 114.145 55.52 114.768 54.9371C115.107 54.6203 115.368 54.3757 115.368 54.0836C115.368 52.3618 113.26 50.321 110.706 50.321C107.641 50.321 104.638 52.5531 104.638 56.7626C104.638 61.3541 108.662 65.4996 115.688 65.4996C128.014 65.4996 132.484 55.6781 135.23 45.0914C145.641 45.0276 148.706 42.2215 148.706 38.7776C148.706 36.8644 147.684 35.5251 146.79 35.5251C146.532 35.5251 146.377 35.6893 146.109 35.9732C145.65 36.4604 144.858 37.3003 142.639 38.2674C140.979 38.9052 138.807 39.4792 136.444 39.9256C136.621 39.1631 136.794 38.4048 136.965 37.6538L136.966 37.6507L136.966 37.6506L136.966 37.6504L136.966 37.6502L136.966 37.6501L136.966 37.6499L136.966 37.6497C137.968 33.2515 138.913 29.1081 140.276 25.895C143.917 27.298 147.365 28.446 150.367 28.446C155.732 28.446 158.031 24.173 158.031 20.9205C158.031 17.8593 155.923 16.0098 154.71 16.0098C154.176 16.0098 154 16.2764 153.621 16.8469L153.621 16.847C153.546 16.9598 153.463 17.0846 153.368 17.2215ZM174.819 21.8776C174.819 27.9362 169.965 37.8852 161.024 45.4745C160.449 48.0893 160.066 50.5765 160.066 52.5536C160.066 54.8495 160.641 56.2525 162.046 56.2525C163.26 56.2525 165.559 55.487 169.902 49.301C170.157 48.9184 170.54 48.7271 170.86 48.7271C171.163 48.7271 171.437 48.9032 171.582 49.1957C171.965 47.413 172.507 45.599 173.144 44.0074C174.741 40.0533 176.593 36.737 178.956 36.737C181.255 36.737 182.597 38.459 182.597 40.5635C182.597 41.4348 182.265 42.0122 181.687 43.0206C181.503 43.3409 181.295 43.7046 181.064 44.135C179.148 47.7702 178.254 51.0865 178.254 53.2548C178.254 55.1683 179.084 55.8698 179.978 55.8698C183.682 55.8698 188.983 48.3442 190.388 41.4564C190.456 41.1501 190.652 40.9345 190.916 40.8002C190.592 40.0587 190.41 39.2553 190.41 38.3952C190.41 35.8442 192.071 33.6758 194.178 33.6758C195.775 33.6758 196.797 35.2064 196.797 37.5661C196.797 38.3314 196.605 39.4794 196.222 40.8824H196.988C198.84 40.8824 201.204 40.2447 202.225 39.4794C202.864 38.9692 203.375 38.7778 203.758 38.7778C204.78 38.7778 206.249 40.1171 206.249 41.7115C206.249 42.6681 205.738 43.6248 204.972 44.8365C203.503 47.1962 201.395 50.7039 201.395 53.8928C201.395 55.1043 202.098 55.6783 202.864 55.6783C203.758 55.6783 205.483 55.4868 209.825 49.3008C210.081 48.9181 210.464 48.7268 210.783 48.7268C211.231 48.7268 211.614 49.1095 211.614 49.6834C211.614 50.0023 211.55 50.3212 211.294 50.7676C206.504 59.3773 202.928 61.4183 199.479 61.4183C196.286 61.4183 193.923 59.1858 193.923 55.8698C193.923 52.8085 196.541 48.7268 198.585 46.2396C196.477 45.7462 194.369 44.761 192.822 43.3625C188.676 54.3312 183.606 61.4183 176.912 61.4183C172.953 61.4183 170.973 58.1658 170.973 54.2113C170.973 53.2373 171.071 52.1367 171.25 50.9842C166.512 59.4118 162.46 61.4185 158.597 61.4185C154.957 61.4185 152.594 58.74 152.594 53.255C152.594 44.0715 161.727 15.5 170.349 15.5C173.478 15.5 174.819 17.7322 174.819 21.8776ZM170.157 24.7474C168.624 24.7474 164.665 33.0382 162.174 41.2653C168.369 34.4414 170.86 27.9362 170.86 25.7679C170.86 25.1301 170.668 24.7474 170.157 24.7474ZM178.828 29.4666C178.828 31.635 180.617 33.1656 182.916 33.1656C185.918 33.1656 188.6 31.1886 188.6 28.3187C188.6 26.4692 187.386 24.3008 184.321 24.3008C181.319 24.3008 178.828 26.5967 178.828 29.4666ZM226.738 28.953C227.409 27.9625 227.936 27.183 227.936 26.7242C227.936 24.6196 225.957 23.4717 224.488 23.4717C222.252 23.4717 220.592 25.5763 218.548 29.4666C217.015 32.4002 215.61 36.0992 214.461 39.7982H214.333C213.091 39.7982 212.366 39.5401 211.888 39.3701C211.654 39.2865 211.479 39.2242 211.331 39.2242C211.012 39.2242 210.82 39.6069 210.82 40.0533C210.82 41.3926 211.906 42.6681 213.439 43.3696C213.056 44.7727 212.736 46.1757 212.481 47.3875C211.97 49.8109 211.778 52.2344 211.778 53.7652C211.778 58.2292 213.886 61.4182 217.718 61.4182C221.614 61.4182 225.701 59.3772 230.491 50.7676C230.747 50.3212 230.81 50.0023 230.81 49.6834C230.81 49.1094 230.427 48.7268 229.98 48.7268C229.661 48.7268 229.278 48.9181 229.022 49.3007C224.679 55.4867 222.38 56.2522 221.167 56.2522C219.762 56.2522 218.995 54.7217 218.995 51.9155C218.995 49.3645 219.442 46.6859 220.081 44.1349C227.873 43.8798 230.172 41.0737 230.172 38.0763C230.172 36.3543 229.278 35.5252 228.575 35.5252C228.35 35.5252 228.174 35.6913 227.875 35.9738C227.409 36.4131 226.645 37.1337 224.935 37.9487C223.977 38.3951 222.891 38.714 221.678 39.0329C222.827 35.9079 224.168 33.1655 225.318 31.1885C225.778 30.3712 226.29 29.6154 226.738 28.9536L226.738 28.9531L226.738 28.953ZM253.45 21.9414C253.45 26.4694 250.576 32.2092 246.616 37.4388C247.382 36.9924 248.149 36.7373 248.979 36.7373C253.322 36.7373 255.302 40.7551 255.302 44.6454C255.302 51.9796 248.979 61.4185 240.804 61.4185C234.162 61.4185 231.352 56.8905 231.352 50.8954C231.352 48.2806 231.799 45.4107 232.565 42.4132C235.248 31.5714 241.762 15.5 248.723 15.5C251.853 15.5 253.45 18.1148 253.45 21.9414ZM248.212 24.7474C246.424 24.7474 242.337 33.4847 239.846 41.6479C245.147 35.9081 248.915 29.4031 248.915 25.7679C248.915 25.3215 248.851 24.7474 248.212 24.7474ZM243.295 42.9235C243.039 42.9235 242.592 42.8597 242.592 42.222V42.0306C241.315 43.3061 240.038 44.4541 238.76 45.5382C238.441 46.8138 238.122 48.7908 238.122 51.0229C238.122 54.084 239.08 57.4645 241.89 57.4645C245.722 57.4645 248.787 51.9158 248.787 47.3877C248.787 43.6887 247.446 42.0306 245.786 42.0306C245.195 42.0306 244.737 42.2943 244.319 42.5351C243.968 42.7373 243.645 42.9235 243.295 42.9235ZM272.882 58.7401C273.713 60.2706 275.118 61.1636 277.034 61.1636C280.035 61.1636 283.165 59.3776 287.955 50.7679C288.21 50.3215 288.274 50.0026 288.274 49.6837C288.274 49.1098 287.891 48.7271 287.444 48.7271C287.124 48.7271 286.741 48.9184 286.486 49.3011C282.143 55.4871 280.418 55.7426 279.524 55.7426C278.886 55.7426 278.375 55.1686 278.183 54.0206C279.652 51.7883 282.271 47.5154 282.271 44.0077C282.271 42.4133 281.249 41.2016 279.908 41.2016C279.652 41.2016 279.397 41.2654 279.397 41.2654C279.397 41.2654 279.46 41.0741 279.46 40.819C279.46 38.7781 277.034 36.7373 273.649 36.7373C266.176 36.7373 259.023 44.8368 259.023 53.1916C259.023 58.4211 262.28 61.4186 266.368 61.4186C268.476 61.4186 270.647 60.7806 272.882 58.7401ZM271.988 55.3596C271.349 55.9976 270.519 56.4441 269.434 56.4441C267.39 56.4441 265.985 54.5946 265.985 51.2781C265.985 44.8368 269.881 40.245 272.307 40.245C273.393 40.245 273.968 40.9465 273.968 42.0945C273.968 42.6775 273.801 43.0316 273.658 43.335C273.551 43.5626 273.457 43.7617 273.457 44.0077C273.457 44.3904 274.096 44.6455 274.798 44.773C273.074 47.5154 271.988 51.2781 271.988 54.5946V55.3596ZM304.639 26.7242C304.639 27.1827 304.112 27.9618 303.442 28.9515C302.994 29.6138 302.482 30.3704 302.021 31.1885C300.871 33.1655 299.53 35.9079 298.38 39.0329C299.594 38.714 300.68 38.3951 301.638 37.9487C303.348 37.1335 304.112 36.4127 304.578 35.9735C304.877 35.6912 305.053 35.5252 305.278 35.5252C305.98 35.5252 306.875 36.3543 306.875 38.0763C306.875 41.0737 304.575 43.8798 296.784 44.1349C296.145 46.6859 295.698 49.3645 295.698 51.9155C295.698 54.7217 296.464 56.2522 297.869 56.2522C299.083 56.2522 301.382 55.4867 305.725 49.3007C305.98 48.9181 306.364 48.7268 306.683 48.7268C306.853 48.7268 307.014 48.7824 307.149 48.8829C308.697 42.4276 314.364 36.7373 320.402 36.7373C324.425 36.7373 326.724 39.2246 326.724 42.0945C326.724 46.4312 321.743 50.6404 314.079 51.597C314.59 54.2116 316.187 56.1251 319.188 56.1251C321.871 56.1251 323.787 54.7856 325.064 53.5741C325.451 53.2114 325.774 52.8396 326.054 52.5177C326.513 51.9904 326.855 51.597 327.172 51.597C327.619 51.597 328.002 51.9797 328.002 52.5536C328.002 54.9771 323.659 61.4186 315.676 61.4186C311.333 61.4186 306.734 58.4211 306.734 52.2985C306.734 52.0461 306.741 51.7936 306.755 51.5412C302.153 59.5005 298.197 61.4182 294.421 61.4182C290.589 61.4182 288.481 58.2292 288.481 53.7652C288.481 52.2344 288.673 49.8109 289.184 47.3875C289.439 46.1757 289.758 44.7727 290.142 43.3696C288.609 42.6681 287.523 41.3926 287.523 40.0533C287.523 39.6069 287.715 39.2242 288.034 39.2242C288.182 39.2242 288.357 39.2865 288.591 39.3701C289.069 39.5401 289.794 39.7982 291.036 39.7982H291.163C292.313 36.0992 293.718 32.4002 295.251 29.4666C297.295 25.5763 298.955 23.4717 301.19 23.4717C302.659 23.4717 304.639 24.6196 304.639 26.7242ZM313.951 49.046C314.334 44.5179 317.4 39.7985 319.699 39.7985C320.338 39.7985 321.04 40.3725 321.04 41.7118C321.04 45.0281 317.592 48.0894 313.951 49.046Z" fill="url(#paint0_linear_6956_34695)"/>
<g filter="url(#filter0_d_6956_34695)">
<path d="M17.1379 18.8577C17.549 19.6027 18.4676 19.8656 19.2011 19.4478C20.5399 18.6851 22.7041 17.8083 24.9828 18.3415C29.6517 19.4342 31.8308 23.6596 31.0115 27.4884C30.2019 31.2725 26.6925 33.8905 23.978 35.5758C20.2881 37.8666 15.14 39.8 12.2368 40.5518C10.1462 38.3717 6.74795 33.9935 4.77768 30.0833C3.32806 27.2067 1.67931 23.1128 2.93254 19.4561C4.20008 15.7553 8.23076 13.3064 12.7739 14.8491C14.992 15.6022 16.3877 17.4975 17.1379 18.8577Z" fill="#FC3248"/>
<path d="M17.0928 19.0534C17.4992 19.7908 18.4084 20.0509 19.134 19.6374C20.4588 18.8827 22.6002 18.0152 24.8548 18.5428C29.4743 19.6241 31.6307 23.8046 30.8198 27.5933C30.0188 31.3374 26.5465 33.9277 23.8607 35.5953C20.2097 37.862 15.1161 39.7749 12.2434 40.519C10.1747 38.3618 6.81239 34.0297 4.86282 30.1609C3.42842 27.3149 1.79734 23.264 3.03717 19.6457C4.29131 15.9842 8.27967 13.5609 12.7747 15.0872C14.9693 15.8323 16.3505 17.7075 17.0928 19.0534Z" fill="#FA3046"/>
<path d="M17.0438 19.2516C17.446 19.9809 18.3455 20.2382 19.0634 19.8294C20.3739 19.0828 22.4924 18.2245 24.723 18.7463C29.2933 19.8161 31.4267 23.9521 30.6244 27.7002C29.8319 31.4045 26.3965 33.9672 23.7393 35.6169C20.1273 37.8595 15.0878 39.752 12.2459 40.488C10.1995 38.3537 6.87305 34.068 4.94418 30.2404C3.52501 27.4247 1.91128 23.417 3.13802 19.8374C4.37877 16.2148 8.32449 13.8173 12.7717 15.3275C14.9429 16.0648 16.3094 17.9202 17.0438 19.2516Z" fill="#F82F45"/>
<path d="M17.0107 19.4458C17.4087 20.1673 18.2984 20.4219 19.0084 20.0173C20.3049 19.2788 22.4006 18.4298 24.6072 18.946C29.1283 20.004 31.2387 24.0955 30.4449 27.8035C29.6609 31.4678 26.2626 34.003 23.634 35.6347C20.061 37.8529 15.0758 39.725 12.2642 40.4533C10.2398 38.3422 6.94929 34.1023 5.04113 30.3161C3.63748 27.5307 2.0408 23.5663 3.25445 20.0251C4.4821 16.4414 8.3852 14.0699 12.7843 15.5637C14.9324 16.2933 16.2843 18.1286 17.0107 19.4458Z" fill="#F62D43"/>
<path d="M16.977 19.6439C17.3707 20.3574 18.2506 20.6092 18.953 20.2093C20.2352 19.4787 22.3084 18.639 24.4909 19.1497C28.9627 20.1963 31.0499 24.2432 30.265 27.9106C29.4895 31.5351 26.1284 34.0424 23.5284 35.6569C19.9944 37.8509 15.0633 39.7026 12.2826 40.4232C10.2803 38.3349 7.02544 34.1414 5.13798 30.3963C3.74957 27.6413 2.17055 23.7199 3.3708 20.2176C4.58505 16.673 8.44552 14.3274 12.7968 15.8048C14.9215 16.5257 16.2584 18.3409 16.977 19.6439Z" fill="#F32C41"/>
<path d="M16.9163 19.839C17.3054 20.5448 18.1759 20.7938 18.8705 20.3982C20.1386 19.6757 22.1887 18.8453 24.3471 19.3504C28.7696 20.3855 30.834 24.3879 30.0579 28.0148C29.2909 31.5994 25.9666 34.0792 23.3953 35.6757C19.8999 37.8456 15.0234 39.6769 12.2733 40.3895C10.293 38.3241 7.07408 34.1769 5.20763 30.473C3.83443 27.7483 2.27277 23.8702 3.45993 20.4062C4.66079 16.9006 8.47863 14.581 12.7824 16.042C14.8836 16.7552 16.2057 18.5506 16.9163 19.839Z" fill="#F12A40"/>
<path d="M16.8827 20.0355C17.2675 20.7336 18.1283 20.9798 18.8152 20.5882C20.0693 19.8738 22.0966 19.0526 24.2309 19.5518C28.6042 20.5755 30.6457 24.5331 29.8781 28.1198C29.1196 31.6645 25.8325 34.1168 23.2898 35.6953C19.8334 37.8411 15.0111 39.6519 12.2918 40.3565C10.3334 38.3143 7.15036 34.2132 5.30462 30.5504C3.94665 27.856 2.40234 24.0212 3.5764 20.596C4.76386 17.1295 8.53939 14.8353 12.7951 16.2803C14.8725 16.986 16.1799 18.7613 16.8827 20.0355Z" fill="#EF283E"/>
<path d="M16.8492 20.2323C17.2298 20.9223 18.0808 21.1657 18.7598 20.7788C19.9996 20.0724 22.0043 19.2606 24.1146 19.7542C28.4388 20.7661 30.4572 24.6794 29.6981 28.2257C28.9482 31.7304 25.6979 34.1549 23.1841 35.7158C19.7667 37.8375 14.9989 39.6279 12.3097 40.3247C10.3736 38.3054 7.22617 34.2504 5.40143 30.6291C4.05899 27.9649 2.53204 24.1735 3.6927 20.7865C4.86677 17.3591 8.59967 15.0908 12.8075 16.5194C14.8616 17.2171 16.1544 18.9723 16.8492 20.2323Z" fill="#ED273C"/>
<path d="M16.7885 20.428C17.1648 21.1102 18.0061 21.3508 18.6775 20.9683C19.9033 20.2699 21.8849 19.4673 23.9711 19.9554C28.246 20.9559 30.2412 24.8247 29.491 28.3304C28.7496 31.7949 25.5365 34.1922 23.0513 35.7352C19.6728 37.8327 14.9592 39.6027 12.3008 40.2915C10.3866 38.2951 7.2751 34.2865 5.47108 30.7063C4.14386 28.0724 2.63426 24.324 3.78183 20.976C4.9425 17.5875 8.63308 15.3452 12.7928 16.7577C14.8234 17.4474 16.1016 19.1825 16.7885 20.428Z" fill="#EB253B"/>
<path d="M16.7555 20.6234C17.1272 21.2976 17.9591 21.5358 18.6225 21.1575C19.8341 20.4672 21.7931 19.6736 23.8553 20.1561C28.0808 21.1452 30.0532 24.9691 29.3115 28.4346C28.5787 31.8595 25.4026 34.2286 22.9458 35.754C19.6063 37.8274 14.9469 39.577 12.3192 40.2577C10.4272 38.2845 7.35139 34.322 5.56806 30.7829C4.25607 28.1794 2.76382 24.4742 3.89831 21.1646C5.04558 17.8151 8.69352 15.5988 12.8055 16.9949C14.8129 17.6769 16.0762 19.3925 16.7555 20.6234Z" fill="#E92339"/>
<path d="M16.7214 20.8222C17.0889 21.4887 17.9107 21.7238 18.5669 21.3502C19.7644 20.6679 21.7002 19.8835 23.7387 20.3605C27.9149 21.3381 29.8645 25.1175 29.1313 28.5425C28.4073 31.9275 25.2678 34.2691 22.8399 35.7768C19.5394 37.8258 14.9341 39.5553 12.3372 40.228C10.4671 38.2777 7.42754 34.3613 5.66492 30.8636C4.36815 28.2904 2.89357 24.6285 4.01465 21.3573C5.14853 18.047 8.75415 15.8561 12.818 17.2361C14.802 17.91 16.0503 19.6055 16.7214 20.8222Z" fill="#E72238"/>
<path d="M16.661 21.0158C17.0242 21.6742 17.8366 21.9068 18.4848 21.5375C19.6683 20.8633 21.5814 20.0882 23.5958 20.5596C27.723 21.5254 29.6494 25.2603 28.9248 28.6451C28.2092 31.9899 25.1069 34.3043 22.7073 35.7941C19.4455 37.8189 14.8947 39.528 12.3283 40.193C10.4804 38.2655 7.47644 34.3955 5.73452 30.939C4.45328 28.3964 2.99575 24.7772 4.10374 21.5449C5.22422 18.2737 8.78722 16.1087 12.8033 17.4723C14.7641 18.1382 15.9979 19.8136 16.661 21.0158Z" fill="#E52036"/>
<path d="M16.6275 21.2138C16.9865 21.8645 17.7888 22.094 18.4294 21.7294C19.5986 21.0632 21.4891 20.2974 23.4792 20.7632C27.557 21.7176 29.4606 25.408 28.7448 28.7522C28.0378 32.0572 24.9726 34.3437 22.6017 35.8159C19.3788 37.8166 14.8822 39.5053 12.3465 40.1622C10.5206 38.2579 7.55255 34.434 5.83164 31.0186C4.56562 28.5063 3.12544 24.9304 4.22004 21.7365C5.32712 18.5042 8.84749 16.3652 12.8157 17.7125C14.7531 18.3703 15.9723 20.0259 16.6275 21.2138Z" fill="#E21F34"/>
<path d="M16.5784 21.4102C16.9328 22.0532 17.7257 22.2799 18.3584 21.9193C19.5136 21.2612 21.3809 20.5047 23.3473 20.9646C27.3758 21.9076 29.2563 25.5533 28.5493 28.8571C27.8508 32.1221 24.8225 34.3811 22.4804 35.8354C19.2965 37.812 14.8545 39.4802 12.3492 40.1291C10.5452 38.2477 7.61308 34.4699 5.91287 31.096C4.66208 28.614 3.23956 25.0814 4.32076 21.9261C5.41444 18.7328 8.89249 16.6198 12.8126 17.9506C14.7266 18.601 15.9311 20.2365 16.5784 21.4102Z" fill="#E01D33"/>
<path d="M16.5331 21.6062C16.8832 22.2411 17.6663 22.4653 18.2914 22.109C19.4326 21.4589 21.2771 20.7117 23.2194 21.166C27.1986 22.0973 29.0562 25.6985 28.3578 28.9621C27.6678 32.1872 24.6766 34.4187 22.3629 35.855C19.218 37.8075 14.8301 39.4553 12.3556 40.0965C10.5738 38.2383 7.67734 34.5065 5.99814 31.1737C4.76257 28.7221 3.35741 25.2328 4.42552 22.1158C5.50611 18.9615 8.94153 16.8742 12.8136 18.1889C14.7038 18.8313 15.8937 20.4467 16.5331 21.6062Z" fill="#DE1B31"/>
<path d="M16.5 21.8024C16.8459 22.4297 17.6193 22.6508 18.2368 22.2991C19.3637 21.6571 21.1856 20.9191 23.1036 21.3679C27.0338 22.2877 28.8682 25.8444 28.1783 29.0674C27.4969 32.2527 24.5425 34.4563 22.2577 35.8753C19.1517 37.8037 14.8181 39.4311 12.3741 40.0642C10.6142 38.2289 7.75362 34.5435 6.09513 31.2519C4.87479 28.8305 3.48698 25.3842 4.54199 22.3062C5.60888 19.1912 9.00198 17.1295 12.8262 18.4282C14.6936 19.0622 15.8686 20.6575 16.5 21.8024Z" fill="#DC1A2F"/>
<path d="M16.4509 21.9985C16.7925 22.618 17.5562 22.8364 18.1657 22.4891C19.2786 21.855 21.0775 21.1264 22.9716 21.5696C26.8525 22.4779 28.6641 25.9901 27.9827 29.1726C27.3098 32.318 24.3926 34.4941 22.1364 35.8951C19.0691 37.7994 14.79 39.4064 12.3767 40.0314C10.6391 38.219 7.81441 34.5798 6.17632 31.3295C4.9715 28.9385 3.60105 25.5355 4.64267 22.4959C5.69647 19.4198 9.04663 17.3841 12.8231 18.6664C14.6673 19.2923 15.8273 20.8678 16.4509 21.9985Z" fill="#DA182E"/>
<path d="M16.4056 22.1937C16.7429 22.8051 17.4968 23.0207 18.0988 22.678C19.1973 22.052 20.9736 21.3326 22.8437 21.77C26.6753 22.6669 28.4638 26.1342 27.7912 29.2765C27.1268 32.382 24.2468 34.5305 22.0189 35.9136C18.9906 37.7938 14.7656 39.3804 12.3831 39.9974C10.6674 38.2082 7.87867 34.615 6.26159 31.4059C5.072 29.0452 3.7189 25.6854 4.74742 22.6845C5.78782 19.6474 9.09567 17.6377 12.824 18.9036C14.6445 19.5221 15.7899 21.0775 16.4056 22.1937Z" fill="#D8172C"/>
<path d="M16.3725 22.3906C16.7053 22.9943 17.4498 23.2071 18.0438 22.8687C19.1284 22.2508 20.8819 21.5407 22.7276 21.9724C26.5101 22.8576 28.2755 26.2807 27.6114 29.3825C26.9556 32.448 24.1124 34.5688 21.9134 35.9343C18.9241 37.7899 14.7533 39.3561 12.4015 39.9657C10.708 38.1994 7.95495 34.6526 6.35858 31.4846C5.18421 29.1542 3.84847 25.8378 4.8639 22.8752C5.8909 19.8771 9.15612 17.893 12.8366 19.1428C14.634 19.7533 15.7648 21.2886 16.3725 22.3906Z" fill="#D6152A"/>
<path d="M16.3385 22.5867C16.667 23.1824 17.4017 23.3927 17.9881 23.0586C19.0587 22.449 20.789 21.7479 22.611 22.1741C26.3442 23.0478 28.0867 26.4264 27.4315 29.4876C26.7842 32.5133 23.9781 34.6065 21.8078 35.9541C18.8574 37.7856 14.7412 39.3314 12.4195 39.933C10.748 38.1895 8.0308 34.6888 6.45544 31.5623C5.29629 29.2622 3.97821 25.9888 4.98024 23.0648C5.99385 20.1056 9.21674 18.1476 12.8492 19.381C14.6224 19.9835 15.7387 21.4989 16.3385 22.5867Z" fill="#D41329"/>
<path d="M16.2781 22.7844C16.6024 23.3723 17.3273 23.5796 17.9058 23.2502C18.9621 22.6483 20.6699 21.9568 22.4678 22.3774C26.1517 23.2397 27.8711 26.5734 27.2247 29.5944C26.5859 32.5802 23.817 34.6459 21.675 35.9755C18.7636 37.7829 14.7015 39.3083 12.4106 39.9018C10.761 38.1816 8.07974 34.7269 6.52508 31.6416C5.38116 29.3718 4.08043 26.1416 5.06937 23.2564C6.06958 20.3364 9.24985 18.4041 12.8345 19.6211C14.5846 20.2155 15.6862 21.7109 16.2781 22.7844Z" fill="#D11227"/>
<path d="M16.2444 22.9802C16.5644 23.5601 17.2797 23.7648 17.8505 23.4398C18.8928 22.8463 20.5778 22.1637 22.3516 22.5784C25.9862 23.4293 27.6827 26.7185 27.0449 29.699C26.4146 32.6449 23.6825 34.6827 21.5694 35.995C18.697 37.7783 14.6892 39.2833 12.429 39.8687C10.8016 38.1714 8.15599 34.7632 6.62203 31.7192C5.49363 29.48 4.20995 26.2929 5.18581 23.446C6.17262 20.565 9.31056 18.6586 12.8471 19.8593C14.5735 20.446 15.6601 21.9212 16.2444 22.9802Z" fill="#CF1025"/>
<path d="M16.1953 23.1766C16.5108 23.7488 17.2166 23.9508 17.7795 23.6297C18.8078 23.044 20.4696 22.3707 22.2194 22.7801C25.8047 23.6192 27.4784 26.8639 26.849 29.8045C26.2273 32.7105 23.5323 34.7208 21.4479 36.0152C18.6141 37.7743 14.6608 39.2589 12.4314 39.8366C10.8259 38.1622 8.21621 34.8003 6.70326 31.7975C5.59009 29.5886 4.32407 26.4448 5.28653 23.6365C6.25994 20.7946 9.35526 18.9138 12.844 20.0987C14.5475 20.6764 15.6193 22.1322 16.1953 23.1766Z" fill="#CD0F24"/>
<path d="M16.1504 23.3727C16.4616 23.9369 17.1576 24.136 17.713 23.8197C18.7269 23.2422 20.3662 22.5779 22.092 22.9818C25.6282 23.8094 27.2788 27.0096 26.658 29.9097C26.0447 32.7758 23.3869 34.7586 21.3308 36.035C18.536 37.77 14.6369 39.2342 12.4382 39.8039C10.855 38.1526 8.28121 34.8365 6.78866 31.8752C5.69071 29.6966 4.44205 26.5958 5.39111 23.8261C6.35112 21.0231 9.40412 19.1684 12.845 20.3368C14.5251 20.9069 15.5823 22.3425 16.1504 23.3727Z" fill="#CB0D22"/>
<path d="M16.1171 23.5678C16.424 24.1242 17.1103 24.3206 17.6578 24.0086C18.6577 23.4389 20.2738 22.7841 21.9759 23.1822C25.4627 23.9984 27.0905 27.1539 26.4782 30.0135C25.8735 32.8397 23.2525 34.7947 21.2253 36.0535C18.4695 37.7644 14.6249 39.2081 12.4564 39.7698C10.895 38.1414 8.35719 34.8717 6.88565 31.9515C5.80292 29.8032 4.57162 26.7457 5.50758 24.0147C6.4542 21.251 9.46457 19.4219 12.8577 20.574C14.5143 21.1366 15.5569 22.5522 16.1171 23.5678Z" fill="#C90B21"/>
<path d="M16.068 23.7666C16.3706 24.3152 17.0469 24.5085 17.587 24.2011C18.5726 23.6395 20.1662 22.994 21.8439 23.3865C25.2815 24.1912 26.8861 27.3019 26.2826 30.1213C25.6864 32.9077 23.1026 34.8351 21.104 36.0759C18.3872 37.7624 14.5967 39.186 12.459 39.74C10.9196 38.1348 8.41767 34.9112 6.96684 32.0321C5.89964 29.9141 4.68569 26.8999 5.60826 24.2073C6.54148 21.4825 9.50923 19.6794 12.8545 20.8151C14.4877 21.3696 15.5157 22.7651 16.068 23.7666Z" fill="#C70A1F"/>
<path d="M16.0229 23.9602C16.321 24.5009 16.9881 24.6917 17.52 24.3886C18.4916 23.835 20.0624 23.1988 21.716 23.5857C25.1046 24.3787 26.686 27.4452 26.0914 30.2241C25.5037 32.9705 22.9568 34.8704 20.9868 36.0936C18.3089 37.756 14.5727 39.1592 12.4657 39.7051C10.9485 38.1228 8.48224 34.9452 7.05211 32.1076C6.00014 30.02 4.80354 27.0487 5.71301 24.3951C6.63284 21.7093 9.55826 19.9319 12.8554 21.0514C14.4652 21.5973 15.4782 22.973 16.0229 23.9602Z" fill="#C5081D"/>
<path d="M15.989 24.1563C16.2828 24.6892 16.9399 24.8773 17.4645 24.5785C18.4221 24.0329 19.9697 23.406 21.5996 23.7874C24.9388 24.5689 26.4974 27.5909 25.9113 30.3293C25.3322 33.0358 22.8224 34.9078 20.881 36.1134C18.2421 37.7517 14.5601 39.1345 12.4838 39.6723C10.9886 38.1129 8.55822 34.9818 7.14909 32.1852C6.11235 30.1279 4.93311 27.2 5.82949 24.5847C6.73622 21.9379 9.61871 20.1864 12.8681 21.2896C14.4541 21.8281 15.4525 23.1836 15.989 24.1563Z" fill="#C3061C"/>
<path d="M15.9363 24.3544C16.2259 24.8796 16.8732 25.0645 17.3899 24.7704C18.3332 24.2332 19.8583 23.6152 21.4641 23.9907C24.754 24.7608 26.2898 27.7379 25.7122 30.4361C25.1416 33.1024 22.6686 34.9472 20.7562 36.1349C18.1559 37.749 14.5284 39.1114 12.4826 39.6412C11.0096 38.105 8.61484 35.0199 7.22642 32.2645C6.2049 30.2375 5.04332 27.3529 5.9263 24.7763C6.81964 22.1684 9.65981 20.4429 12.8611 21.5297C14.4243 22.0605 15.4077 23.3959 15.9363 24.3544Z" fill="#C0051A"/>
<path d="M15.8952 24.5506C16.1805 25.0677 16.818 25.2502 17.3271 24.9601C18.2564 24.4306 19.7587 23.8222 21.3401 24.1921C24.5807 24.9505 26.0933 27.8834 25.5246 30.541C24.9625 33.1674 22.5267 34.9848 20.6426 36.1545C18.0813 37.7445 14.5083 39.0864 12.4929 39.6085C11.0418 38.0952 8.68331 35.0562 7.3156 32.3423C6.3093 30.3459 5.16507 27.5042 6.03496 24.966C6.9149 22.3974 9.71244 20.6973 12.8659 21.768C14.4057 22.2907 15.3745 23.6064 15.8952 24.5506Z" fill="#BE0318"/>
<path d="M15.8615 24.7446C16.1425 25.254 16.7704 25.4337 17.2718 25.1479C18.1871 24.6268 19.6662 24.0274 21.2239 24.3917C24.4152 25.1386 25.905 28.0267 25.3448 30.6441C24.7912 33.2306 22.3925 35.0201 20.537 36.1722C18.0148 37.7381 14.4959 39.0596 12.5113 39.5737C11.0824 38.0832 8.75955 35.0906 7.41254 32.4178C6.42177 30.4517 5.2946 27.6531 6.1514 25.1535C7.01794 22.6239 9.77316 20.9497 12.8785 22.0044C14.3945 22.5193 15.3487 23.8149 15.8615 24.7446Z" fill="#BC0217"/>
<path d="M15.8082 24.9443C16.0847 25.4456 16.7031 25.6226 17.1966 25.3414C18.0976 24.828 19.5542 24.2382 21.0878 24.597C24.23 25.3324 25.6967 28.176 25.145 30.7529C24.6003 33.2995 22.2382 35.0615 20.4116 36.1956C17.9283 37.7374 14.4636 39.0385 12.5098 39.5445C11.1028 38.0773 8.81587 35.1308 7.48987 32.4991C6.51432 30.5633 5.40481 27.8079 6.24821 25.347C7.10136 22.8564 9.81395 21.2082 12.8715 22.2465C14.3638 22.7534 15.3031 24.0288 15.8082 24.9443Z" fill="#BA0015"/>
<g style="mix-blend-mode:color-dodge">
<path d="M9.55698 15.9848C7.16805 15.8787 4.76664 17.3549 4.0094 21.2116C3.06735 26.0089 6.50551 31.2162 7.49171 32.5004C8.47791 33.7845 7.06148 31.7516 6.08716 26.7774C5.11283 21.8036 7.49476 19.4729 9.63188 18.571C11.7687 17.6688 11.0818 16.0525 9.55698 15.9848Z" fill="url(#paint1_linear_6956_34695)"/>
</g>
</g>
<path d="M21.2131 2.59624C21.5918 2.81521 22.0686 2.68191 22.2839 2.29717C22.677 1.59479 23.4062 0.617158 24.5578 0.234269C26.9175 -0.550375 28.9979 0.7319 29.6431 2.65377C30.281 4.55306 29.4139 6.66884 28.6536 8.15493C27.6199 10.1748 25.8451 12.4323 24.7551 13.5556C23.2528 13.1566 20.5913 12.1378 18.6865 10.9385C17.2853 10.0561 15.4749 8.68782 15.0672 6.72451C14.6543 4.7377 15.7976 2.55511 18.2201 2.00428C19.4026 1.7352 20.5216 2.19665 21.2131 2.59624Z" fill="#FC3248"/>
<path d="M21.2446 2.69498C21.6195 2.91147 22.0914 2.77972 22.3042 2.39899C22.693 1.70404 23.4146 0.736613 24.5543 0.357745C26.889 -0.418548 28.9476 0.850119 29.5861 2.75188C30.2173 4.63107 29.3593 6.72459 28.6069 8.1949C27.5842 10.1935 25.8279 12.4274 24.7495 13.5386C23.263 13.1437 20.6296 12.1357 18.7449 10.9494C17.3583 10.0766 15.567 8.72254 15.1639 6.77995C14.7556 4.81416 15.8864 2.65446 18.2833 2.10951C19.4537 1.84291 20.5608 2.29972 21.2446 2.69498Z" fill="#FA3046"/>
<path d="M21.2847 2.79469C21.6556 3.00902 22.1223 2.8785 22.333 2.5018C22.7179 1.81427 23.4319 0.857357 24.5591 0.482201C26.8688 -0.285742 28.9055 0.969317 29.5373 2.85067C30.1618 4.70975 29.3129 6.781 28.5684 8.23554C27.5566 10.2128 25.8193 12.4229 24.7521 13.5224C23.2815 13.1318 20.6761 12.1346 18.8114 10.9606C17.4398 10.0971 15.6674 8.75761 15.2685 6.83543C14.8645 4.89068 15.9834 2.75386 18.3547 2.21479C19.5126 1.9519 20.6079 2.40345 21.2847 2.79469Z" fill="#F82F45"/>
<path d="M21.3088 2.89195C21.6754 3.1038 22.1373 2.97483 22.3459 2.60246C22.7265 1.92235 23.4329 0.975647 24.5479 0.60482C26.833 -0.155081 28.8474 1.08668 29.4725 2.94793C30.0903 4.78691 29.2505 6.83589 28.5143 8.27497C27.5135 10.2309 25.7947 12.4172 24.7391 13.5046C23.2843 13.1183 20.7069 12.1317 18.8624 10.9703C17.5053 10.1161 15.7521 8.79115 15.3575 6.8897C14.9578 4.96567 16.0648 2.85205 18.4105 2.31885C19.556 2.05813 20.6393 2.50504 21.3088 2.89195Z" fill="#F62D43"/>
<path d="M21.3483 2.99068C21.711 3.20038 22.168 3.07264 22.3741 2.70429C22.7507 2.03161 23.4492 1.09511 24.552 0.728299C26.8122 -0.0232515 28.805 1.2049 29.4231 3.04574C30.0342 4.86492 29.2035 6.89132 28.4752 8.31463C27.4851 10.2492 25.7852 12.4117 24.7411 13.4873C23.3022 13.1051 20.7528 12.1293 18.9286 10.9806C17.5865 10.1357 15.8525 8.82494 15.4622 6.94452C15.0666 5.04152 16.1615 2.9511 18.482 2.42346C19.6146 2.16614 20.6864 2.6081 21.3483 2.99068Z" fill="#F32C41"/>
<path d="M21.3802 3.0904C21.7389 3.29761 22.1907 3.17143 22.3947 2.8071C22.7671 2.14183 23.4579 1.21585 24.5489 0.852755C26.7841 0.109555 28.7549 1.3241 29.3663 3.14452C29.9707 4.9436 29.1489 6.94804 28.4288 8.35558C27.4496 10.2688 25.7683 12.4075 24.7358 13.4714C23.3127 13.0934 20.7916 12.1285 18.9873 10.9925C17.6598 10.1568 15.945 8.86063 15.5589 7.00093C15.1679 5.11896 16.2506 3.05143 18.5455 2.52967C19.6657 2.27451 20.7253 2.71184 21.3802 3.0904Z" fill="#F12A40"/>
<path d="M21.4046 3.18882C21.7593 3.39387 22.206 3.26924 22.4079 2.90861C22.776 2.25078 23.4592 1.335 24.538 0.976231C26.7482 0.241381 28.6972 1.44232 29.3016 3.24264C29.8992 5.02161 29.0866 7.00379 28.3744 8.39555C27.4062 10.2874 25.7437 12.4023 24.7225 13.4544C23.3152 13.0808 20.8222 12.1264 19.0379 11.0031C17.7253 10.1767 16.0294 8.89504 15.6479 7.05575C15.2612 5.19481 16.332 3.15016 18.601 2.63428C19.709 2.38222 20.757 2.81428 21.4046 3.18882Z" fill="#EF283E"/>
<path d="M21.4483 3.2867C21.7991 3.48928 22.2409 3.36618 22.4403 3.00958C22.8044 2.35886 23.4798 1.4536 24.5464 1.09885C26.7319 0.372045 28.6586 1.55968 29.2563 3.33959C29.8473 5.09846 29.0438 7.05837 28.3398 8.43436C27.3826 10.3049 25.7387 12.3959 24.729 13.4363C23.3379 13.0668 20.8725 12.1235 19.1084 11.0125C17.8107 10.1954 16.1339 8.92828 15.7564 7.10971C15.374 5.2695 16.4329 3.24804 18.6763 2.73804C19.7715 2.48907 20.808 2.91649 21.4483 3.2867Z" fill="#ED273C"/>
<path d="M21.4802 3.38513C21.827 3.58554 22.2636 3.46368 22.4609 3.11141C22.8208 2.46811 23.4885 1.57305 24.5429 1.22233C26.7035 0.503872 28.6083 1.6779 29.1993 3.4377C29.7836 5.17678 28.9892 7.11412 28.2932 8.47464C27.3468 10.3238 25.7215 12.3911 24.7235 13.4194C23.3481 13.0541 20.9111 12.1214 19.1671 11.0231C17.884 10.2153 16.2264 8.96237 15.8531 7.16484C15.4753 5.34565 16.5218 3.34708 18.7399 2.84296C19.8229 2.59677 20.8472 3.01925 21.4802 3.38513Z" fill="#EB253B"/>
<path d="M21.5007 3.48453C21.8436 3.68247 22.275 3.56216 22.4699 3.21391C22.8255 2.57803 23.4856 1.69349 24.5278 1.34678C26.6634 0.636678 28.5466 1.7971 29.1306 3.53649C29.7079 5.25547 28.923 7.17053 28.2348 8.51528C27.2992 10.3434 25.6931 12.3868 24.7063 13.4031C23.3468 13.0419 20.9377 12.1199 19.2138 11.0347C17.9456 10.2361 16.3069 8.99775 15.9382 7.22094C15.5646 5.42279 16.5992 3.44742 18.7918 2.94886C19.8623 2.70545 20.875 3.12298 21.5007 3.48453Z" fill="#E92339"/>
<path d="M21.5402 3.58326C21.8791 3.77904 22.3056 3.65996 22.4981 3.31573C22.8497 2.68728 23.5019 1.81294 24.5323 1.47026C26.6432 0.768505 28.5042 1.91532 29.0815 3.6346C29.6521 5.33348 28.8763 7.22627 28.1961 8.55525C27.2714 10.3621 25.6838 12.3817 24.7089 13.3862C23.3652 13.0293 20.9842 12.1182 19.2803 11.0453C18.0268 10.256 16.4073 9.03216 16.0428 7.27576C15.6735 5.49863 16.6962 3.54615 18.8629 3.05346C19.921 2.81315 20.9218 3.22604 21.5402 3.58326Z" fill="#E72238"/>
<path d="M21.5724 3.68083C21.907 3.87444 22.3287 3.75661 22.519 3.4164C22.8664 2.79536 23.511 1.93124 24.5291 1.59288C26.6151 0.899168 28.4542 2.03268 29.0244 3.73155C29.5883 5.41033 28.8217 7.28085 28.1497 8.59436C27.2359 10.3798 25.667 12.3756 24.7036 13.3684C23.3758 13.0158 21.0228 12.1152 19.339 11.055C18.1004 10.2753 16.5001 9.06571 16.1396 7.33003C15.7748 5.57394 16.7851 3.64434 18.9264 3.15753C19.9723 2.92 20.9613 3.32764 21.5724 3.68083Z" fill="#E52036"/>
<path d="M21.6121 3.78054C21.9428 3.97168 22.3593 3.85539 22.5475 3.5192C22.8909 2.90559 23.5279 2.05198 24.5336 1.71734C26.5946 1.03197 28.4117 2.15187 28.9753 3.83065C29.5325 5.48963 28.775 7.33757 28.1109 8.63531C27.2081 10.3994 25.658 12.3714 24.7059 13.3525C23.3939 13.0039 21.0689 12.1141 19.4053 11.0666C18.1813 10.2961 16.6001 9.10078 16.2442 7.38613C15.8837 5.65076 16.8821 3.74436 18.9979 3.26343C20.031 3.02837 21.0083 3.43137 21.6121 3.78054Z" fill="#E21F34"/>
<path d="M21.6402 3.87897C21.9669 4.06794 22.3785 3.95289 22.5643 3.62103C22.9034 3.01484 23.5328 2.17144 24.5263 1.84082C26.5623 1.1638 28.3575 2.2701 28.9144 3.92846C29.4649 5.56733 28.7165 7.39301 28.0604 8.67529C27.1686 10.4181 25.637 12.3662 24.6965 13.3352C23.4003 12.991 21.1037 12.112 19.4601 11.0772C18.251 10.316 16.6887 9.13519 16.3371 7.44095C15.9808 5.72661 16.9673 3.8434 19.0576 3.36804C20.0782 3.13577 21.0434 3.53412 21.6402 3.87897Z" fill="#E01D33"/>
<path d="M21.672 3.97737C21.9948 4.16386 22.4012 4.05035 22.5848 3.72252C22.9198 3.12375 23.5415 2.29055 24.5228 1.96426C26.5339 1.2956 28.3072 2.38859 28.8574 4.02654C29.4012 5.64531 28.6619 7.44872 28.014 8.71523C27.1328 10.4367 25.6202 12.361 24.6912 13.3182C23.4109 12.978 21.1422 12.1099 19.5188 11.0877C18.3243 10.3359 16.7812 9.16956 16.4338 7.49604C16.0821 5.80274 17.0564 3.94242 19.1211 3.47293C20.1292 3.24344 21.0829 3.63685 21.672 3.97737Z" fill="#DE1B31"/>
<path d="M21.7115 4.07723C22.0303 4.26156 22.4319 4.14929 22.6131 3.82547C22.944 3.23413 23.5579 2.41145 24.5273 2.08887C26.5137 1.42824 28.2651 2.50763 28.8083 4.12548C29.3454 5.72414 28.6152 7.50529 27.9752 8.75602C27.105 10.4561 25.6109 12.3567 24.6936 13.3021C23.4291 12.9662 21.1884 12.1086 19.585 11.0991C18.4055 10.3565 16.8816 9.20478 16.5384 7.55199C16.191 5.8794 17.1532 4.04228 19.1923 3.57867C20.1876 3.35227 21.1296 3.74104 21.7115 4.07723Z" fill="#DC1A2F"/>
<path d="M21.7359 4.17495C22.0508 4.35681 22.4472 4.24609 22.6262 3.9263C22.9529 3.34237 23.5592 2.52989 24.5164 2.21134C26.4779 1.55906 28.2073 2.62515 28.7438 4.22259C29.2742 5.80115 28.5532 7.56003 27.9211 8.79529C27.0619 10.4741 25.5867 12.3508 24.6805 13.2845C23.4319 12.9529 21.2192 12.1061 19.636 11.109C18.471 10.3757 16.9663 9.23818 16.6274 7.60611C16.2843 5.95455 17.2345 4.14032 19.2481 3.68258C20.2312 3.45928 21.1611 3.84279 21.7359 4.17495Z" fill="#DA182E"/>
<path d="M21.7756 4.27338C22.0865 4.45307 22.4777 4.34359 22.6546 4.02781C22.9771 3.45132 23.5757 2.64904 24.5208 2.33481C26.4573 1.69089 28.1648 2.74337 28.6943 4.32039C29.218 5.87916 28.5061 7.61546 27.8819 8.83495C27.0336 10.4927 25.577 12.3453 24.6825 13.2672C23.4496 12.9397 21.2653 12.1037 19.7021 11.1196C18.5521 10.3956 17.0663 9.27258 16.7319 7.66124C16.3934 6.03071 17.3315 4.23936 19.3194 3.78719C20.2901 3.56699 21.2084 3.94554 21.7756 4.27338Z" fill="#D8172C"/>
<path d="M21.8076 4.37278C22.1145 4.55 22.5009 4.44206 22.6753 4.13062C22.9938 3.56154 23.5845 2.76948 24.5174 2.45927C26.4289 1.8237 28.1145 2.86257 28.6373 4.41948C29.1543 5.95815 28.4516 7.67218 27.8356 8.87621C26.9983 10.5126 25.5603 12.3414 24.6773 13.2513C23.4603 12.9281 21.304 12.1026 19.7609 11.1312C18.6258 10.4164 17.1588 9.30797 16.8288 7.71734C16.4944 6.10784 17.4204 4.33938 19.383 3.8934C20.3412 3.67505 21.2476 4.04897 21.8076 4.37278Z" fill="#D6152A"/>
<path d="M21.8356 4.47121C22.1383 4.64626 22.5198 4.53956 22.6921 4.23214C23.0063 3.67048 23.5894 2.88893 24.5105 2.58275C26.3973 1.95553 28.0607 2.98079 28.5768 4.51729C29.0868 6.03586 28.3935 7.72762 27.7854 8.91587C26.9591 10.5309 25.5399 12.3362 24.6682 13.234C23.467 12.9149 21.3387 12.1005 19.8157 11.1415C18.6952 10.436 17.2478 9.34206 16.9217 7.77216C16.5916 6.18369 17.5057 4.43843 19.4427 3.99801C20.3881 3.78275 21.2827 4.15172 21.8356 4.47121Z" fill="#D41329"/>
<path d="M21.8718 4.56909C22.1705 4.74166 22.5468 4.63682 22.7167 4.3331C23.027 3.77887 23.6024 3.00753 24.511 2.70537C26.3729 2.08619 28.0143 3.09815 28.5237 4.61455C29.027 6.11301 28.3429 7.78251 27.7427 8.95499C26.927 10.5487 25.5267 12.3302 24.6666 13.2162C23.4813 12.9014 21.3813 12.0976 19.8781 11.1512C18.7725 10.455 17.3439 9.3753 17.0224 7.82612C16.6966 6.25837 17.5988 4.5363 19.51 4.10177C20.4435 3.8896 21.3262 4.25362 21.8718 4.56909Z" fill="#D11227"/>
<path d="M21.9034 4.67173C22.1981 4.84214 22.5696 4.73853 22.737 4.43884C23.043 3.89204 23.6109 3.1309 24.5073 2.83275C26.3442 2.22192 27.964 3.22028 28.4664 4.71627C28.963 6.19494 28.288 7.84185 27.696 8.99887C26.8913 10.5712 25.5096 12.3289 24.661 13.2032C23.4915 12.8927 21.4195 12.0994 19.9367 11.166C18.8458 10.4791 17.4364 9.41392 17.1191 7.88546C16.7979 6.33875 17.6876 4.63957 19.5735 4.21059C20.4942 4.00152 21.3654 4.36059 21.9034 4.67173Z" fill="#CF1025"/>
<path d="M21.9431 4.76722C22.2339 4.93516 22.6002 4.8331 22.7655 4.53743C23.0673 3.99805 23.6275 3.24742 24.5117 2.9533C26.3236 2.35082 27.9215 3.33557 28.4172 4.81145C28.9071 6.27002 28.2412 7.89497 27.6573 9.03591C26.8635 10.5869 25.5003 12.3208 24.6633 13.1834C23.5097 12.8769 21.4657 12.0947 20.003 11.1737C18.927 10.496 17.5364 9.44539 17.2237 7.93765C16.9068 6.41198 17.7846 4.73568 19.6449 4.31258C20.5529 4.10599 21.4121 4.46042 21.9431 4.76722Z" fill="#CD0F24"/>
<path d="M21.9679 4.86577C22.2547 5.03155 22.6158 4.93072 22.779 4.63938C23.0768 4.10742 23.6291 3.367 24.5011 3.0769C26.2884 2.48246 27.8641 3.45391 28.3528 4.90938C28.836 6.34784 28.1789 7.95053 27.6031 9.076C26.8203 10.6057 25.4761 12.3157 24.6503 13.1662C23.5125 12.8641 21.4965 12.0924 20.0539 11.1841C18.9925 10.516 17.6215 9.47961 17.3127 7.99259C17 6.48795 17.866 4.83453 19.7007 4.41732C20.5968 4.21381 21.4442 4.5633 21.9679 4.86577Z" fill="#CB0D22"/>
<path d="M21.9994 4.96353C22.2823 5.12683 22.6385 5.02755 22.7993 4.74023C23.0928 4.21569 23.6375 3.48548 24.4977 3.1994C26.26 2.61331 27.8137 3.57115 28.2957 5.00621C28.7722 6.42457 28.1243 8.00499 27.5568 9.11469C26.7849 10.623 25.4592 12.3092 24.645 13.148C23.523 12.8499 21.5354 12.089 20.1126 11.1934C19.0661 10.5346 17.7139 9.51242 17.4094 8.04613C17.1013 6.5622 17.9551 4.93229 19.764 4.52095C20.6476 4.32054 21.4833 4.66508 21.9994 4.96353Z" fill="#C90B21"/>
<path d="M22.0428 5.06293C22.3217 5.22407 22.6728 5.12603 22.8314 4.84273C23.121 4.32561 23.6578 3.60591 24.5057 3.32385C26.2431 2.74612 27.7749 3.69035 28.2502 5.10531C28.72 6.50356 28.0812 8.06171 27.5216 9.15564C26.7604 10.643 25.4536 12.305 24.651 13.1321C23.5448 12.8382 21.5852 12.0882 20.1828 11.2052C19.1509 10.5557 17.8179 9.54811 17.518 8.10254C17.2141 6.63964 18.0557 5.03263 19.8393 4.62716C20.7101 4.42891 21.5337 4.7685 22.0428 5.06293Z" fill="#C70A1F"/>
<path d="M22.0634 5.16167C22.3383 5.32064 22.6845 5.22384 22.8407 4.94456C23.126 4.43486 23.6552 3.72537 24.491 3.44733C26.2036 2.87795 27.7135 3.80857 28.1818 5.20311C28.6449 6.58157 28.0153 8.11715 27.4636 9.19561C26.7133 10.6616 25.4254 12.2999 24.6341 13.1151C23.5437 12.8256 21.6121 12.0861 20.2298 11.2158C19.2128 10.5756 17.899 9.58252 17.6031 8.15767C17.3035 6.7158 18.1332 5.13167 19.8912 4.73177C20.7495 4.53661 21.5616 4.87156 22.0634 5.16167Z" fill="#C5081D"/>
<path d="M22.0956 5.2604C22.3663 5.4169 22.7076 5.32164 22.8617 5.04638C23.1427 4.54411 23.6643 3.84483 24.4879 3.57081C26.1756 3.00977 27.6636 3.92679 28.1252 5.30123C28.5816 6.65959 27.9611 8.17289 27.4173 9.23558C26.678 10.6802 25.4086 12.2947 24.6289 13.0982C23.5544 12.8127 21.6508 12.0844 20.2885 11.2264C19.2862 10.5955 17.9916 9.61692 17.6999 8.21248C17.4045 6.79165 18.2223 5.2304 19.9548 4.83638C20.8007 4.64463 21.6011 4.97463 22.0956 5.2604Z" fill="#C3061C"/>
<path d="M22.1347 5.36157C22.4014 5.5159 22.7376 5.42188 22.8895 5.15095C23.1666 4.6561 23.6805 3.96703 24.492 3.69734C26.1547 3.14434 27.6208 4.04806 28.0753 5.40209C28.5248 6.74034 27.9137 8.23138 27.3781 9.27829C26.6498 10.7016 25.399 12.2925 24.6311 13.084C23.5724 12.8028 21.6972 12.085 20.3547 11.2397C19.3673 10.6181 18.0915 9.65376 17.8044 8.27035C17.5136 6.87024 18.319 5.33219 20.0262 4.94404C20.8592 4.75476 21.6475 5.08013 22.1347 5.36157Z" fill="#C0051A"/>
<path d="M22.163 5.45737C22.4258 5.60923 22.7571 5.51676 22.9063 5.24985C23.1791 4.76242 23.6854 4.08386 24.4847 3.81788C26.1225 3.27324 27.5666 4.16335 28.0145 5.49727C28.4572 6.81542 27.8552 8.28419 27.3276 9.31564C26.6102 10.7176 25.3783 12.2847 24.6217 13.0641C23.5792 12.787 21.7316 12.08 20.4096 11.2477C19.4371 10.6353 18.1802 9.68554 17.8973 8.32285C17.6108 6.94377 18.4043 5.42892 20.0856 5.04634C20.9065 4.85985 21.6832 5.17995 22.163 5.45737Z" fill="#BE0318"/>
<path d="M22.1989 5.55611C22.4577 5.7058 22.7838 5.61456 22.9309 5.35168C23.1994 4.87167 23.6981 4.20332 24.4852 3.94136C26.098 3.40507 27.5203 4.28157 27.9614 5.59539C28.3975 6.89375 27.8046 8.33994 27.2849 9.35562C26.5785 10.7362 25.3652 12.2795 24.6201 13.0472C23.5934 12.7744 21.7738 12.0782 20.4719 11.2583C19.514 10.6552 18.2766 9.71995 17.998 8.37798C17.7158 7.01993 18.4974 5.52797 20.1531 5.15126C20.9615 4.96755 21.726 5.28302 22.1989 5.55611Z" fill="#BC0217"/>
<path d="M22.235 5.65551C22.4898 5.80273 22.8108 5.71304 22.9557 5.45417C23.2203 4.98128 23.7111 4.32344 24.486 4.06581C26.0741 3.53787 27.4741 4.40076 27.9086 5.69417C28.3379 6.97243 27.7542 8.39635 27.2424 9.39626C26.5467 10.7555 25.3522 12.275 24.6187 13.0309C23.6076 12.7625 21.8163 12.0768 20.5345 11.2696C19.5915 10.6757 18.373 9.75502 18.0987 8.43347C17.821 7.09645 18.5901 5.62737 20.2206 5.25654C21.0168 5.07623 21.7697 5.38675 22.235 5.65551Z" fill="#BA0015"/>
<g style="mix-blend-mode:color-dodge">
<path d="M17.0839 3.37976C15.9957 3.98224 15.3194 5.29018 15.9996 7.20741C16.8458 9.59227 19.7438 10.9679 20.5196 11.2695C21.2957 11.571 20.1314 11.0542 18.3883 9.11196C16.6451 7.16968 17.0879 5.48812 17.7985 4.50678C18.5092 3.52574 17.7787 2.99532 17.0839 3.37976Z" fill="url(#paint2_linear_6956_34695)"/>
</g>
<g filter="url(#filter1_d_6956_34695)">
<path d="M40.0864 18.3596C40.1912 18.6361 40.4938 18.7722 40.766 18.6658C41.2626 18.4713 42.0482 18.2789 42.8045 18.5761C44.354 19.1854 44.8969 20.7454 44.4292 22.0187C43.9673 23.2772 42.6352 23.9997 41.6213 24.4422C40.2433 25.0435 38.382 25.449 37.3486 25.5612C36.7369 24.7079 35.7833 23.0344 35.297 21.5932C34.9393 20.5329 34.5724 19.0447 35.1804 17.8524C35.7954 16.6456 37.2983 16.0073 38.783 16.7647C39.5082 17.1343 39.8952 17.8549 40.0864 18.3596Z" fill="#FC3248"/>
<path d="M40.0582 18.4257C40.1621 18.6991 40.4614 18.834 40.7305 18.7285C41.222 18.5358 41.9993 18.3456 42.7477 18.6397C44.281 19.2428 44.8178 20.7861 44.3553 22.0458C43.8983 23.291 42.5802 24.0061 41.5773 24.4437C40.2138 25.0384 38.372 25.4396 37.3496 25.5509C36.7443 24.7066 35.8007 23.0507 35.3197 21.6246C34.9659 20.5755 34.6026 19.103 35.2043 17.9234C35.8129 16.7293 37.2997 16.0978 38.7688 16.8471C39.4858 17.2133 39.8689 17.9262 40.0582 18.4257Z" fill="#FA3046"/>
<path d="M40.0383 18.4902C40.1409 18.7608 40.4371 18.8941 40.7035 18.7899C41.1898 18.5994 41.9589 18.411 42.6991 18.702C44.216 19.2987 44.7473 20.8256 44.2894 22.072C43.8372 23.3038 42.5331 24.0112 41.5409 24.4441C40.1917 25.0327 38.3697 25.4295 37.3585 25.5396C36.7596 24.7042 35.8264 23.066 35.3502 21.6554C35.0001 20.6174 34.6408 19.1607 35.236 17.9935C35.8383 16.812 37.3092 16.1873 38.7625 16.9286C39.4722 17.2908 39.851 17.9963 40.0383 18.4902Z" fill="#F82F45"/>
<path d="M40.0145 18.5543C40.1159 18.8218 40.4091 18.9538 40.6725 18.8505C41.1536 18.6622 41.9142 18.4757 42.6467 18.7636C44.1472 19.3537 44.6727 20.8643 44.22 22.0971C43.7727 23.3156 42.4826 24.0152 41.501 24.4436C40.1665 25.0256 38.364 25.4184 37.3634 25.5273C36.7712 24.7009 35.8477 23.0803 35.3767 21.6848C35.0302 20.658 34.6752 19.217 35.2638 18.0625C35.8593 16.894 37.3147 16.2758 38.7522 17.0091C39.4546 17.3675 39.8291 18.0656 40.0145 18.5543Z" fill="#F62D43"/>
<path d="M39.9902 18.6205C40.0907 18.8853 40.3806 19.0158 40.6412 18.9137C41.1168 18.7272 41.8695 18.5432 42.5938 18.8277C44.0782 19.4113 44.5979 20.9055 44.15 22.125C43.7076 23.3302 42.4318 24.0224 41.4606 24.4461C40.1406 25.022 38.3579 25.4101 37.3684 25.5181C36.7826 24.7007 35.8691 23.098 35.4033 21.7176C35.0607 20.7023 34.7094 19.2768 35.2915 18.1346C35.8807 16.9789 37.32 16.3671 38.7422 17.0927C39.4364 17.4468 39.8069 18.1371 39.9902 18.6205Z" fill="#F32C41"/>
<path d="M39.966 18.685C40.0653 18.947 40.3521 19.0759 40.6097 18.9751C41.0801 18.7908 41.8243 18.6086 42.5407 18.89C44.0086 19.4675 44.5225 20.9449 44.0798 22.1511C43.6423 23.3431 42.3805 24.0275 41.4202 24.4466C40.1149 25.016 38.3517 25.4001 37.3731 25.5068C36.7937 24.6983 35.8903 23.1133 35.4299 21.7481C35.091 20.7439 34.7436 19.3342 35.3194 18.2047C35.9022 17.0616 37.3256 16.4566 38.732 17.1742C39.4183 17.5243 39.7849 18.2068 39.966 18.685Z" fill="#F12A40"/>
<path d="M39.9466 18.7513C40.045 19.0101 40.3285 19.1379 40.583 19.038C41.0482 18.8558 41.7842 18.6755 42.4927 18.9542C43.9441 19.5251 44.4526 20.9861 44.0145 22.1787C43.5818 23.3574 42.3341 24.0344 41.3844 24.4485C40.0934 25.0117 38.35 25.3915 37.382 25.4967C36.809 24.6972 35.916 23.1297 35.4605 21.7797C35.1252 20.7866 34.7818 19.3927 35.3512 18.2756C35.9272 17.1452 37.3351 16.547 38.7257 17.2568C39.4047 17.6035 39.7673 18.2784 39.9466 18.7513Z" fill="#EF283E"/>
<path d="M39.9148 18.8177C40.012 19.0738 40.2921 19.2 40.5442 19.1013C41.0043 18.921 41.7317 18.7429 42.4323 19.0181C43.8676 19.5826 44.37 21.0272 43.937 22.2065C43.5092 23.3719 42.2755 24.0411 41.3365 24.4509C40.0601 25.0079 38.3361 25.3831 37.3792 25.4873C36.8125 24.6971 35.9295 23.147 35.4792 21.8122C35.1479 20.8302 34.8081 19.452 35.3711 18.3476C35.9408 17.2299 37.3326 16.6385 38.7076 17.3403C39.3793 17.6826 39.7376 18.3501 39.9148 18.8177Z" fill="#ED273C"/>
<path d="M39.8945 18.8832C39.9904 19.1362 40.2675 19.2611 40.5165 19.1634C40.9714 18.9852 41.6906 18.8089 42.383 19.0814C43.8018 19.6394 44.2987 21.0676 43.8706 22.2333C43.4477 23.3853 42.228 24.0472 41.2999 24.4521C40.0382 25.0026 38.334 25.3737 37.388 25.4767C36.8281 24.6955 35.9548 23.163 35.5097 21.8436C35.1821 20.8728 34.8462 19.5104 35.4031 18.4186C35.9664 17.3136 37.3423 16.729 38.7015 17.4227C39.3647 17.7614 39.7191 18.4214 39.8945 18.8832Z" fill="#EB253B"/>
<path d="M39.8669 18.9466C39.9619 19.1968 40.2356 19.3202 40.4819 19.2237C40.9313 19.0477 41.6426 18.8733 42.3271 19.1427C43.7295 19.6941 44.2206 21.106 43.7974 22.2584C43.3793 23.3971 42.1736 24.0513 41.2562 24.4518C40.0091 24.9958 38.3244 25.3629 37.3891 25.4647C36.8355 24.6924 35.9723 23.1779 35.5323 21.8733C35.2087 20.9136 34.8765 19.567 35.427 18.4876C35.9836 17.3956 37.344 16.8175 38.6873 17.5032C39.3435 17.8378 39.6936 18.4901 39.8669 18.9466Z" fill="#E92339"/>
<path d="M39.8469 19.0124C39.9407 19.2595 40.2114 19.3816 40.4546 19.2861C40.8989 19.112 41.6016 18.94 42.2781 19.206C43.6644 19.7512 44.1498 21.1464 43.7314 22.2855C43.3182 23.4113 42.1265 24.0577 41.2198 24.4532C39.987 24.9911 38.3221 25.3535 37.398 25.4544C36.8508 24.6911 35.9977 23.1941 35.5629 21.9048C35.2429 20.9565 34.9147 19.6254 35.4588 18.5587C36.009 17.4793 37.3532 16.908 38.6814 17.5857C39.3296 17.9163 39.6755 18.5611 39.8469 19.0124Z" fill="#E72238"/>
<path d="M39.8227 19.0784C39.9153 19.3228 40.1829 19.4434 40.4234 19.3491C40.8625 19.1771 41.557 19.007 42.2256 19.2699C43.5955 19.8087 44.075 21.1874 43.6619 22.3129C43.2535 23.4254 42.0761 24.064 41.1797 24.455C39.9615 24.9863 38.3161 25.3448 37.403 25.444C36.8623 24.6897 36.0195 23.2104 35.5895 21.9365C35.2732 20.9994 34.9489 19.6837 35.4866 18.6297C36.0304 17.563 37.3589 16.9985 38.6712 17.6681C39.3115 17.9953 39.6537 18.6325 39.8227 19.0784Z" fill="#E52036"/>
<path d="M39.787 19.1426C39.8786 19.3842 40.1429 19.5032 40.3804 19.4101C40.8143 19.24 41.5003 19.0721 42.161 19.3319C43.5144 19.8642 43.9885 21.2265 43.5802 22.3387C43.1767 23.4379 42.0133 24.0688 41.1279 24.4554C39.9243 24.9806 38.2987 25.3347 37.3962 25.4328C36.8619 24.6874 36.0291 23.2257 35.6044 21.967C35.292 21.041 34.9714 19.7411 35.5027 18.6997C36.0398 17.6457 37.3524 17.0881 38.6492 17.7496C39.2819 18.0725 39.6198 18.7019 39.787 19.1426Z" fill="#E21F34"/>
<path d="M39.7673 19.2067C39.8577 19.4452 40.119 19.5627 40.3537 19.4709C40.7824 19.3029 41.4602 19.1368 42.1127 19.3935C43.4496 19.9193 43.9179 21.2653 43.5145 22.3639C43.1159 23.4497 41.9665 24.0733 41.0918 24.4549C39.9025 24.9736 38.2967 25.3234 37.4052 25.4205C36.8775 24.6841 36.0545 23.2401 35.6349 21.9964C35.3262 21.0816 35.0095 19.7975 35.5344 18.7688C36.0652 17.7274 37.3619 17.1766 38.6429 17.8301C39.2683 18.1496 39.6023 18.7713 39.7673 19.2067Z" fill="#E01D33"/>
<path d="M39.7432 19.2722C39.8327 19.5079 40.0906 19.6238 40.3223 19.5332C40.7455 19.3674 41.4154 19.2035 42.06 19.4568C43.3808 19.9761 43.8433 21.3057 43.4447 22.391C43.051 23.4636 41.9156 24.0793 41.0515 24.4563C39.8768 24.9688 38.2905 25.3143 37.41 25.4102C36.8887 24.6827 36.0757 23.2563 35.6614 22.0282C35.3566 21.1245 35.0439 19.8561 35.5621 18.8398C36.0864 17.8112 37.3673 17.2671 38.6324 17.9126C39.2502 18.2281 39.58 18.8423 39.7432 19.2722Z" fill="#DE1B31"/>
<path d="M39.719 19.338C39.8073 19.5705 40.0618 19.6853 40.2911 19.5956C40.7091 19.4317 41.3705 19.2699 42.0071 19.5201C43.3115 20.0332 43.7682 21.3461 43.3748 22.4178C42.986 23.4771 41.8646 24.0854 41.0115 24.4578C39.8514 24.9638 38.2846 25.3052 37.415 25.3998C36.9001 24.6814 36.0975 23.2729 35.688 22.0596C35.3869 21.167 35.0781 19.9145 35.59 18.9108C36.1079 17.8949 37.3727 17.3576 38.6226 17.9951C39.2321 18.3065 39.5579 18.9133 39.719 19.338Z" fill="#DC1A2F"/>
<path d="M39.6954 19.4037C39.7825 19.6335 40.034 19.7467 40.2602 19.6582C40.6731 19.4964 41.3262 19.3366 41.9546 19.5837C43.2425 20.0903 43.6938 21.3868 43.3053 22.4451C42.9213 23.4911 41.8139 24.0917 40.9714 24.4595C39.826 24.9593 38.2786 25.2961 37.42 25.3898C36.9115 24.6803 36.119 23.2895 35.7146 22.0913C35.4172 21.2102 35.1124 19.973 35.6178 18.9818C36.129 17.9788 37.3783 17.4481 38.6124 18.0775C39.2146 18.3852 39.5361 18.9843 39.6954 19.4037Z" fill="#DA182E"/>
<path d="M39.6756 19.4671C39.7618 19.6938 40.0099 19.8057 40.2331 19.7182C40.6408 19.5583 41.2854 19.4006 41.9062 19.6446C43.178 20.1447 43.6232 21.4248 43.2395 22.4699C42.8604 23.5025 41.7674 24.0957 40.9352 24.4585C39.8044 24.9518 38.2768 25.2846 37.4289 25.3771C36.9268 24.6769 36.1443 23.3034 35.7451 22.1207C35.4516 21.2507 35.1505 20.0293 35.6495 19.0508C36.1543 18.0605 37.3875 17.5365 38.606 18.1582C39.2009 18.4616 39.5188 19.0529 39.6756 19.4671Z" fill="#D8172C"/>
<path d="M39.6439 19.5322C39.7288 19.7561 39.9739 19.8665 40.1944 19.7802C40.5969 19.6225 41.2333 19.4666 41.8459 19.7075C43.1012 20.2011 43.5409 21.4648 43.1621 22.4963C42.7879 23.5157 41.7089 24.1012 40.8874 24.4596C39.7709 24.9467 38.2631 25.2752 37.4261 25.3661C36.9304 24.6749 36.1579 23.319 35.7639 22.1515C35.4741 21.2926 35.1769 20.087 35.6695 19.1208C36.168 18.1432 37.3853 17.6261 38.588 18.2397C39.1753 18.5397 39.4889 19.1233 39.6439 19.5322Z" fill="#D6152A"/>
<path d="M39.6232 19.599C39.7069 19.8202 39.949 19.929 40.1664 19.8437C40.5634 19.6881 41.1916 19.5341 41.7966 19.7719C43.0355 20.259 43.4694 21.5064 43.0958 22.5245C42.7264 23.5306 41.6614 24.1083 40.8509 24.4622C39.749 24.9428 38.2607 25.2669 37.4346 25.3569C36.9456 24.6746 36.1829 23.3364 35.7944 22.184C35.5085 21.3363 35.215 20.1465 35.7012 19.193C36.193 18.228 37.3947 17.7174 38.5816 18.3233C39.161 18.6192 39.4704 19.1954 39.6232 19.599Z" fill="#D41329"/>
<path d="M39.5957 19.6652C39.6785 19.8832 39.9172 19.9908 40.1319 19.9067C40.5237 19.753 41.1437 19.6014 41.7404 19.8359C42.9632 20.3168 43.3913 21.5474 43.0223 22.5523C42.6578 23.5451 41.6068 24.1154 40.8069 24.4643C39.7196 24.9387 38.2508 25.2585 37.4357 25.3473C36.9531 24.6739 36.2008 23.3533 35.8171 22.2164C35.5349 21.3798 35.2453 20.2058 35.7252 19.2649C36.2105 18.3127 37.3962 17.8089 38.5678 18.4067C39.1393 18.6983 39.4447 19.2668 39.5957 19.6652Z" fill="#D11227"/>
<path d="M39.576 19.7299C39.6576 19.9452 39.8933 20.0513 40.1049 19.9684C40.4916 19.8169 41.1033 19.6672 41.6918 19.8985C42.8982 20.3729 43.3208 21.5872 42.9566 22.5784C42.597 23.5582 41.56 24.1205 40.7708 24.465C39.6978 24.933 38.2488 25.2487 37.4447 25.3363C36.9685 24.6719 36.2261 23.3692 35.8477 22.2472C35.5691 21.4217 35.2835 20.2635 35.7569 19.335C36.2359 18.3954 37.4057 17.8984 38.5615 18.4882C39.126 18.7761 39.4271 19.3372 39.576 19.7299Z" fill="#CF1025"/>
<path d="M39.5517 19.7957C39.6321 20.0078 39.8647 20.1127 40.0736 20.0307C40.4551 19.8813 41.0583 19.7335 41.6392 19.9617C42.8291 20.4297 43.2459 21.6275 42.887 22.6055C42.5322 23.5717 41.5092 24.1268 40.7307 24.4664C39.6723 24.9282 38.2431 25.2393 37.4496 25.3259C36.9798 24.6705 36.2475 23.3855 35.8742 22.2786C35.5996 21.4645 35.3177 20.3217 35.7847 19.406C36.257 18.4794 37.4112 17.9888 38.5512 18.5706C39.1075 18.8545 39.4047 19.4081 39.5517 19.7957Z" fill="#CD0F24"/>
<path d="M39.5281 19.8595C39.6076 20.0688 39.8369 20.1721 40.0427 20.0914C40.4187 19.9439 41.014 19.7982 41.5867 20.0234C42.7605 20.4848 43.1712 21.6663 42.8171 22.6306C42.4672 23.5838 41.4582 24.1309 40.6906 24.4662C39.6469 24.9215 38.2371 25.2286 37.4546 25.3136C36.9915 24.6672 36.269 23.3998 35.9009 22.3083C35.6299 21.5055 35.3519 20.3781 35.8126 19.475C36.2784 18.5611 37.4166 18.0774 38.541 18.6511C39.09 18.9313 39.3832 19.4772 39.5281 19.8595Z" fill="#CB0D22"/>
<path d="M39.504 19.9249C39.5823 20.1312 39.8082 20.2333 40.0116 20.1535C40.3824 20.0081 40.9692 19.8646 41.534 20.0867C42.6913 20.5419 43.0965 21.7067 42.7473 22.6577C42.4023 23.5976 41.4076 24.1373 40.6504 24.4676C39.6212 24.9167 38.231 25.2195 37.4594 25.3033C37.0027 24.6659 36.2905 23.4161 35.9273 22.3398C35.6603 21.548 35.3863 20.4365 35.8402 19.5461C36.2997 18.6448 37.422 18.1679 38.5306 18.7336C39.072 19.0098 39.3612 19.5479 39.504 19.9249Z" fill="#C90B21"/>
<path d="M39.484 19.9897C39.5613 20.1932 39.7839 20.2934 39.9843 20.2152C40.3499 20.072 40.9284 19.9303 41.4853 20.1493C42.6262 20.5981 43.026 21.7464 42.6816 22.6838C42.3415 23.6105 41.3608 24.1424 40.6142 24.4681C39.5994 24.9107 38.229 25.2091 37.4684 25.292C37.018 24.6636 36.3159 23.4314 35.9579 22.3705C35.6945 21.5899 35.4244 20.4941 35.872 19.6161C36.3251 18.7275 37.4315 18.2574 38.5246 18.8151C39.058 19.0875 39.343 19.618 39.484 19.9897Z" fill="#C70A1F"/>
<path d="M39.4559 20.056C39.532 20.2568 39.7515 20.3557 39.9492 20.2781C40.3097 20.1368 40.8796 19.9973 41.4286 20.2131C42.5533 20.6554 42.947 21.7874 42.6078 22.7115C42.2726 23.6248 41.3059 24.149 40.5703 24.4704C39.5701 24.9068 38.2194 25.2009 37.4695 25.2826C37.0256 24.6631 36.3335 23.4488 35.9806 22.4029C35.7209 21.6334 35.4548 20.5534 35.8959 19.688C36.3423 18.8121 37.4329 18.3488 38.5105 18.8987C39.036 19.1669 39.3171 19.6898 39.4559 20.056Z" fill="#C5081D"/>
<path d="M39.4361 20.1195C39.511 20.3172 39.7275 20.4146 39.9221 20.3385C40.2774 20.1993 40.8392 20.0617 41.3802 20.2745C42.4885 20.7103 42.8767 21.8258 42.5421 22.7367C42.2117 23.6367 41.259 24.1535 40.5341 24.4699C39.5485 24.8998 38.2173 25.1899 37.4783 25.2703C37.0408 24.6601 36.3588 23.4632 36.0111 22.4323C35.7553 21.674 35.4928 20.6097 35.9276 19.7571C36.3676 18.8939 37.4424 18.4374 38.5041 18.9792C39.0223 19.2433 39.2991 19.7589 39.4361 20.1195Z" fill="#C3061C"/>
<path d="M39.4083 20.1849C39.4823 20.3797 39.6954 20.4756 39.8873 20.4005C40.2371 20.2634 40.7909 20.1277 41.3238 20.3374C42.4156 20.7666 42.7981 21.8658 42.4686 22.763C42.1431 23.6498 41.2044 24.1588 40.4901 24.4706C39.5191 24.8943 38.2075 25.1798 37.4795 25.2592C37.0486 24.658 36.3766 23.4787 36.0338 22.463C35.7817 21.7161 35.5232 20.6674 35.9516 19.8271C36.3852 18.9768 37.4438 18.5268 38.49 19.0607C39.0009 19.3217 39.2734 19.8295 39.4083 20.1849Z" fill="#C0051A"/>
<path d="M39.3886 20.2536C39.4614 20.4454 39.6715 20.54 39.8603 20.4661C40.2049 20.331 40.7503 20.1973 41.2752 20.4039C42.3509 20.827 42.7275 21.9095 42.403 22.7934C42.0823 23.6668 41.1576 24.1685 40.454 24.4756C39.4973 24.8928 38.2054 25.1743 37.4884 25.2525C37.0639 24.6603 36.402 23.4986 36.0643 22.4984C35.8159 21.7626 35.5613 20.7296 35.9833 19.902C36.4102 19.0644 37.4534 18.6213 38.4837 19.147C38.987 19.4034 39.2556 19.9035 39.3886 20.2536Z" fill="#BE0318"/>
<path d="M39.3646 20.3181C39.4362 20.507 39.6432 20.6001 39.829 20.5274C40.1685 20.3945 40.7056 20.263 41.2226 20.4662C42.2818 20.8828 42.6527 21.9489 42.333 22.8192C42.0172 23.6793 41.1066 24.1732 40.4139 24.4757C39.4718 24.8867 38.1997 25.1639 37.4933 25.2406C37.0753 24.6573 36.4234 23.5132 36.0909 22.5282C35.8464 21.8035 35.5955 20.7863 36.0111 19.971C36.4316 19.1462 37.4589 18.7098 38.4737 19.2275C38.9694 19.4805 39.234 19.9732 39.3646 20.3181Z" fill="#BC0217"/>
<path d="M39.3407 20.3829C39.4114 20.5687 39.6151 20.6606 39.7981 20.5888C40.1324 20.4577 40.661 20.3284 41.17 20.5285C42.2129 20.9386 42.5783 21.9883 42.2634 22.8453C41.9526 23.6921 41.0562 24.1786 40.3738 24.4762C39.4464 24.8807 38.1938 25.1535 37.4983 25.2293C37.0867 24.6549 36.4449 23.5288 36.1175 22.5586C35.8767 21.8451 35.6298 20.8437 36.039 20.0411C36.4531 19.2289 37.4642 18.7993 38.4635 19.309C38.9513 19.5583 39.2119 20.0433 39.3407 20.3829Z" fill="#BA0015"/>
<g style="mix-blend-mode:color-dodge">
<path d="M37.6223 16.9938C36.8076 16.8373 35.9112 17.2239 35.4639 18.5095C34.907 20.1091 35.8341 22.0694 36.1103 22.5596C36.3865 23.0498 35.9992 22.2809 35.9063 20.5245C35.8137 18.7681 36.7448 18.0877 37.5222 17.8851C38.2998 17.6828 38.1427 17.0937 37.6223 16.9938Z" fill="url(#paint3_linear_6956_34695)"/>
</g>
</g>
<path d="M5.53005 45.2969C5.8126 45.3696 6.09698 45.1976 6.16854 44.9106C6.29916 44.3864 6.59876 43.624 7.2747 43.1687C8.65977 42.2363 10.2266 42.6878 10.9793 43.8114C11.7234 44.9217 11.534 46.4434 11.3036 47.5395C10.9902 49.0293 10.2403 50.8064 9.73366 51.7281C8.69448 51.742 6.79881 51.5654 5.36015 51.1358C4.30148 50.8197 2.89388 50.2639 2.28736 49.0707C1.67323 47.8633 2.02886 46.2485 3.49522 45.4556C4.21136 45.0683 5.01396 45.1639 5.53005 45.2969Z" fill="#FC3248"/>
<path d="M5.56357 45.3549C5.84308 45.4269 6.12472 45.2565 6.19536 44.9726C6.32476 44.4539 6.62102 43.6996 7.28965 43.2493C8.6601 42.3267 10.2105 42.7736 10.9553 43.8852C11.6915 44.9837 11.5042 46.4893 11.2762 47.574C10.9662 49.048 10.2242 50.8066 9.72273 51.7183C8.69451 51.7319 6.81893 51.5575 5.39519 51.1322C4.34779 50.8195 2.95511 50.2693 2.35468 49.0888C1.74694 47.8941 2.09892 46.2966 3.54975 45.512C4.25888 45.1288 5.05296 45.2234 5.56357 45.3549Z" fill="#FA3046"/>
<path d="M5.60001 45.4123C5.87678 45.4834 6.15507 45.3152 6.2251 45.034C6.35298 44.5209 6.64619 43.7746 7.30782 43.329C8.66366 42.4163 10.1976 42.8582 10.9345 43.958C11.6628 45.0448 11.4776 46.5346 11.252 47.6075C10.9454 49.0661 10.211 50.8058 9.71502 51.708C8.69776 51.7216 6.84227 51.5487 5.43376 51.1281C4.39762 50.8185 3.01956 50.2745 2.42583 49.1066C1.82479 47.9249 2.1725 46.3441 3.60811 45.5678C4.30932 45.1887 5.09488 45.2824 5.60001 45.4123Z" fill="#F82F45"/>
<path d="M5.64853 45.4684C5.92226 45.5389 6.19781 45.3722 6.26693 45.0942C6.39359 44.5866 6.68345 43.8484 7.33808 43.4076C8.6793 42.5049 10.1965 42.9419 10.9257 44.0299C11.6464 45.105 11.4631 46.5787 11.24 47.6398C10.9364 49.0826 10.2102 50.8035 9.7197 51.696C8.71341 51.7093 6.87801 51.5386 5.48442 51.1223C4.45924 50.8161 3.0964 50.278 2.50876 49.1225C1.91412 47.9534 2.25818 46.3897 3.67856 45.6218C4.37155 45.2469 5.14889 45.3397 5.64853 45.4684Z" fill="#F62D43"/>
<path d="M5.68956 45.5278C5.96024 45.5974 6.23275 45.4328 6.30126 45.1576C6.4264 44.6556 6.71321 43.9251 7.36053 43.4893C8.68714 42.5961 10.1879 43.0288 10.9089 44.1048C11.6217 45.1681 11.4402 46.6257 11.2198 47.6754C10.9196 49.1024 10.2013 50.8047 9.71597 51.6874C8.72064 51.7007 6.90504 51.5315 5.52697 51.1199C4.51306 50.8171 3.16483 50.2848 2.58389 49.1417C1.99564 47.9853 2.33604 46.4386 3.7409 45.6793C4.42628 45.3088 5.19509 45.4004 5.68956 45.5278Z" fill="#F32C41"/>
<path d="M5.71887 45.5852C5.98651 45.6542 6.25597 45.4912 6.32387 45.219C6.44779 44.7226 6.73126 44.0001 7.37157 43.569C8.68357 42.6857 10.1679 43.1134 10.881 44.1776C11.5858 45.2292 11.4065 46.6708 11.1882 47.709C10.8913 49.1203 10.181 50.8037 9.70113 51.6768C8.71676 51.6901 6.92125 51.5227 5.55811 51.1157C4.55546 50.8163 3.22185 50.2896 2.6473 49.1595C2.06544 48.0158 2.4022 46.4864 3.79153 45.7352C4.4696 45.3684 5.23018 45.459 5.71887 45.5852Z" fill="#F12A40"/>
<path d="M5.75134 45.6438C6.01624 45.7122 6.28266 45.5507 6.34964 45.282C6.47204 44.7908 6.75246 44.0767 7.38578 43.6505C8.68316 42.7771 10.151 43.2002 10.8562 44.2524C11.5532 45.2922 11.376 46.7177 11.1601 47.7445C10.8666 49.1399 10.1641 50.8048 9.68946 51.668C8.71604 51.681 6.94063 51.5155 5.59271 51.1131C4.60103 50.8172 3.28264 50.2963 2.71448 49.1786C2.13933 48.0476 2.47212 46.5352 3.84592 45.7923C4.51608 45.4298 5.26814 45.5195 5.75134 45.6438Z" fill="#EF283E"/>
<path d="M5.79689 45.7022C6.05874 45.7696 6.32211 45.6104 6.38849 45.3444C6.50936 44.8588 6.78674 44.1527 7.41275 43.7312C8.69551 42.8677 10.1467 43.2858 10.8439 44.3262C11.5329 45.3546 11.3579 46.764 11.1444 47.779C10.8543 49.159 10.1597 50.805 9.69024 51.6583C8.72779 51.6713 6.97217 51.5077 5.63947 51.1097C4.65905 50.8168 3.35528 50.3021 2.79352 49.1971C2.22476 48.079 2.5539 46.5833 3.91217 45.8491C4.57563 45.4907 5.31916 45.5791 5.79689 45.7022Z" fill="#ED273C"/>
<path d="M5.84121 45.7603C6.10002 45.8271 6.36035 45.6693 6.42581 45.4065C6.54547 44.9265 6.8195 44.2284 7.4385 43.8118C8.70665 42.9582 10.1413 43.3714 10.8307 44.4001C11.5121 45.4167 11.3389 46.81 11.1279 47.8136C10.841 49.1778 10.1544 50.8049 9.69042 51.6487C8.73892 51.6613 7.0034 51.4999 5.68593 51.1062C4.71678 50.8167 3.42792 50.3079 2.87256 49.2152C2.31019 48.1099 2.63567 46.6312 3.97842 45.9053C4.63365 45.5509 5.36866 45.6384 5.84121 45.7603Z" fill="#EB253B"/>
<path d="M5.87881 45.8168C6.13457 45.8826 6.39216 45.7271 6.45671 45.467C6.57484 44.9925 6.84583 44.3025 7.45783 43.8906C8.71136 43.0465 10.1296 43.4554 10.8107 44.472C11.4842 45.4768 11.3128 46.8541 11.1043 47.8462C10.8208 49.1947 10.1418 50.8033 9.68326 51.6374C8.74272 51.6501 7.0273 51.4902 5.72474 51.1011C4.76686 50.815 3.49262 50.3118 2.94364 49.2321C2.38797 48.1394 2.7095 46.6781 4.03672 45.9603C4.68526 45.6098 5.41174 45.6964 5.87881 45.8168Z" fill="#E92339"/>
<path d="M5.91171 45.8751C6.16443 45.9404 6.41897 45.7864 6.48291 45.5293C6.59983 45.0605 6.86777 44.3785 7.47216 43.9712C8.71108 43.1371 10.1126 43.541 10.7861 44.5458C11.4517 45.5389 11.2824 46.9001 11.0763 47.8805C10.7958 49.2132 10.1251 50.8029 9.67201 51.6274C8.74244 51.6398 7.0468 51.4817 5.75978 51.0976C4.81285 50.8149 3.55384 50.3176 3.01095 49.2503C2.46167 48.1703 2.77955 46.7259 4.09154 46.0165C4.73216 45.6707 5.45012 45.7564 5.91171 45.8751Z" fill="#E72238"/>
<path d="M5.94853 45.9328C6.1985 45.9971 6.4497 45.8449 6.51303 45.5913C6.62843 45.128 6.89332 44.4541 7.49071 44.0517C8.71501 43.2275 10.1001 43.6268 10.7657 44.6199C11.4233 45.6012 11.2562 46.9466 11.0525 47.9153C10.7754 49.2322 10.1126 50.8033 9.66468 51.618C8.74607 51.6303 7.07053 51.4741 5.79842 51.0944C4.86276 50.8148 3.61836 50.3236 3.08218 49.2687C2.53929 48.2013 2.85351 46.774 4.14998 46.0732C4.78299 45.7308 5.49242 45.8152 5.94853 45.9328Z" fill="#E52036"/>
<path d="M5.98565 45.9902C6.23258 46.0539 6.48103 45.9036 6.54345 45.6528C6.65763 45.195 6.91918 44.5291 7.50956 44.1314C8.71925 43.3171 10.0879 43.7114 10.7452 44.6927C11.395 45.6623 11.23 46.9916 11.0287 47.9488C10.755 49.2503 10.1001 50.8023 9.65734 51.6073C8.7497 51.6194 7.09395 51.4654 5.83737 51.0899C4.91297 50.8137 3.68349 50.3285 3.1534 49.2862C2.61691 48.2315 2.92748 46.8212 4.20841 46.1287C4.83381 45.7904 5.53472 45.8742 5.98565 45.9902Z" fill="#E21F34"/>
<path d="M6.03045 46.0463C6.27434 46.1091 6.51974 45.9606 6.58155 45.7129C6.69421 45.2607 6.95271 44.6026 7.53579 44.2101C8.73086 43.4057 10.083 43.795 10.7325 44.7646C11.3746 45.7225 11.2114 47.0357 11.0123 47.9815C10.7419 49.2671 10.0949 50.8005 9.65769 51.5957C8.761 51.6078 7.12535 51.4553 5.88369 51.0845C4.97026 50.8117 3.7557 50.332 3.2323 49.3024C2.70251 48.2607 3.00912 46.8674 4.27453 46.183C4.89262 45.849 5.585 45.9315 6.03045 46.0463Z" fill="#E01D33"/>
<path d="M6.07508 46.1047C6.31592 46.1669 6.55829 46.02 6.61949 45.7753C6.73092 45.3284 6.98608 44.6786 7.56215 44.2908C8.74261 43.4959 10.078 43.881 10.7199 44.8385C11.3541 45.7846 11.1927 47.0817 10.9964 48.0161C10.7293 49.286 10.0899 50.8008 9.65817 51.5861C8.77245 51.5978 7.15689 51.4475 5.93045 51.081C5.02829 50.8117 3.82864 50.3378 3.31134 49.3209C2.78794 48.2919 3.09089 46.9156 4.34078 46.2399C4.95125 45.9102 5.63511 45.9915 6.07508 46.1047Z" fill="#DE1B31"/>
<path d="M6.10408 46.1631C6.34188 46.2243 6.58151 46.0796 6.64179 45.8377C6.75171 45.3964 7.00382 44.7546 7.57288 44.3714C8.73873 43.5865 10.0577 43.9666 10.6913 44.9124C11.3177 45.8467 11.1584 47.1277 10.9645 48.0506C10.7008 49.3048 10.0693 50.8007 9.64303 51.5764C8.76826 51.5882 7.1728 51.4394 5.96128 51.0779C5.07008 50.8119 3.88536 50.3439 3.37475 49.3394C2.85774 48.3231 3.15705 46.9638 4.3914 46.2964C4.99426 45.9707 5.6699 46.0511 6.10408 46.1631Z" fill="#DC1A2F"/>
<path d="M6.13746 46.2217C6.37252 46.2824 6.60879 46.1392 6.66817 45.9007C6.77686 45.4649 7.02562 44.8312 7.58738 44.453C8.73861 43.6779 10.0412 44.0534 10.6669 44.9871C11.2853 45.91 11.1282 47.1749 10.9366 48.0861C10.6763 49.3244 10.0527 50.8019 9.63165 51.5676C8.76784 51.5791 7.19217 51.4325 5.99618 51.0753C5.11624 50.8124 3.94614 50.3503 3.44192 49.3588C2.93162 48.3552 3.22696 47.0129 4.44609 46.3538C5.04104 46.0318 5.70845 46.1113 6.13746 46.2217Z" fill="#DA182E"/>
<path d="M6.1824 46.2772C6.41441 46.3369 6.64764 46.1958 6.7064 45.9602C6.81358 45.53 7.05929 44.9043 7.61405 44.5307C8.75066 43.7655 10.0368 44.136 10.6546 45.058C11.2653 45.9691 11.1101 47.218 10.9207 48.1174C10.6634 49.34 10.048 50.7985 9.63213 51.555C8.77928 51.5665 7.22371 51.4214 6.04264 51.0689C5.17397 50.8094 4.01878 50.3532 3.52096 49.374C3.01705 48.3831 3.30874 47.0581 4.51234 46.4074C5.09998 46.0895 5.75887 46.168 6.1824 46.2772Z" fill="#D8172C"/>
<path d="M6.22703 46.3372C6.45599 46.3963 6.68648 46.2568 6.74433 46.0242C6.85029 45.5996 7.09266 44.9819 7.64041 44.6133C8.76241 43.858 10.0318 44.2236 10.6416 45.1338C11.2445 46.0332 11.0911 47.266 10.9044 48.1539C10.6505 49.361 10.043 50.8007 9.63261 51.5473C8.79073 51.5585 7.25525 51.4156 6.0894 51.0673C5.23199 50.8112 4.09142 50.3609 3.59999 49.3944C3.10248 48.4162 3.39051 47.1082 4.57858 46.4659C5.15861 46.1519 5.80898 46.2293 6.22703 46.3372Z" fill="#D6152A"/>
<path d="M6.26384 46.3937C6.48976 46.4518 6.71721 46.3142 6.77445 46.0847C6.87889 45.6656 7.11821 45.056 7.65896 44.692C8.76634 43.9463 10.0193 44.3076 10.6212 45.2057C11.2162 46.0934 11.0648 47.3104 10.8806 48.1866C10.63 49.3779 10.0305 50.7988 9.62527 51.5358C8.79436 51.5469 7.27867 51.4056 6.12805 51.062C5.2816 50.8093 4.15625 50.3648 3.67122 49.4107C3.18009 48.4454 3.46448 47.1542 4.63702 46.5202C5.20944 46.2109 5.85127 46.2876 6.26384 46.3937Z" fill="#D41329"/>
<path d="M6.29692 46.453C6.5198 46.5106 6.74451 46.3748 6.80084 46.1481C6.90405 45.7346 7.14002 45.1327 7.67347 44.7736C8.76654 44.0379 10.0027 44.3942 10.5968 45.2805C11.1838 46.1564 11.0346 47.3574 10.8528 48.2221C10.6056 49.3977 10.014 50.8 9.6139 51.5271C8.79395 51.5379 7.29835 51.3987 6.16295 51.0598C5.32777 50.8102 4.21704 50.3716 3.7384 49.4302C3.25397 48.4776 3.5344 47.2033 4.69141 46.5777C5.25652 46.2727 5.88984 46.3482 6.29692 46.453Z" fill="#D11227"/>
<path d="M6.32984 46.51C6.54997 46.5666 6.77133 46.4327 6.82705 46.2091C6.92874 45.8012 7.16197 45.2073 7.68811 44.8532C8.76657 44.1273 9.98631 44.479 10.5721 45.3533C11.1512 46.2175 11.0042 47.4023 10.8245 48.2556C10.5806 49.4154 9.99666 50.7991 9.60236 51.5164C8.79336 51.5272 7.31786 51.3899 6.19769 51.0552C5.37378 50.809 4.27766 50.3763 3.80572 49.4476C3.32769 48.5077 3.60446 47.2508 4.74594 46.6334C5.30314 46.3319 5.92793 46.4064 6.32984 46.51Z" fill="#CF1025"/>
<path d="M6.37867 46.5681C6.59576 46.6241 6.81407 46.4917 6.86918 46.2715C6.96935 45.8688 7.19954 45.2833 7.71867 44.9339C8.78221 44.2179 9.98551 44.5646 10.5637 45.4272C11.1352 46.2798 10.99 47.4483 10.8128 48.2902C10.5722 49.4342 9.99617 50.799 9.60704 51.5067C8.80901 51.5175 7.3533 51.3817 6.24835 51.0517C5.4354 50.8089 4.3545 50.3821 3.88865 49.4657C3.41701 48.5385 3.69013 47.2986 4.81639 46.6896C5.36597 46.3924 5.98224 46.4657 6.37867 46.5681Z" fill="#CD0F24"/>
<path d="M6.41548 46.6242C6.62953 46.6792 6.8451 46.549 6.8993 46.3316C6.99825 45.9345 7.22509 45.3571 7.73692 45.0125C8.78584 44.3064 9.9727 44.6482 10.543 45.4993C11.1066 46.3403 10.9632 47.4927 10.7887 48.3231C10.5512 49.4516 9.98335 50.7976 9.59971 51.4957C8.81264 51.5062 7.37702 51.3726 6.2873 51.0469C5.48561 50.8075 4.41933 50.3866 3.95987 49.4829C3.49463 48.5683 3.76409 47.3454 4.87483 46.7448C5.4168 46.4513 6.02453 46.5237 6.41548 46.6242Z" fill="#CB0D22"/>
<path d="M6.45668 46.6826C6.66768 46.7371 6.88021 46.6084 6.93349 46.3941C7.03093 46.0025 7.25472 45.4331 7.75954 45.0932C8.79385 44.3967 9.96426 44.7342 10.5263 45.5732C11.082 46.4024 10.9407 47.539 10.7687 48.3574C10.5346 49.4702 9.97462 50.7973 9.59615 51.4857C8.82004 51.4963 7.40422 51.3642 6.32971 51.0435C5.53899 50.8075 4.48793 50.3921 4.03487 49.5011C3.57632 48.5995 3.84183 47.3934 4.93703 46.8014C5.472 46.5119 6.07152 46.5833 6.45668 46.6826Z" fill="#C90B21"/>
<path d="M6.48569 46.74C6.69365 46.7935 6.90313 46.667 6.9558 46.4555C7.05202 46.0695 7.27246 45.5082 7.77028 45.1729C8.78997 44.4863 9.94364 44.8188 10.4981 45.6461C11.0458 46.4635 10.9067 47.584 10.7371 48.391C10.5063 49.488 9.9543 50.7965 9.58101 51.4751C8.81585 51.4853 7.42013 51.3554 6.36085 51.039C5.58139 50.8061 4.54495 50.397 4.09828 49.5186C3.64613 48.6297 3.90798 47.4409 4.98766 46.8569C5.51471 46.5718 6.1057 46.642 6.48569 46.74Z" fill="#C70A1F"/>
<path d="M6.51896 46.799C6.72418 46.8519 6.93062 46.7269 6.98238 46.5185C7.07707 46.138 7.29447 45.5847 7.78498 45.2544C8.79037 44.5777 9.92729 44.9056 10.4738 45.7208C11.014 46.5265 10.8766 47.6309 10.7092 48.4264C10.4817 49.5077 9.93764 50.7974 9.56983 51.4663C8.81564 51.4765 7.44001 51.3482 6.39565 51.0364C5.62745 50.8069 4.60593 50.4036 4.16566 49.5377C3.7199 48.6615 3.97779 47.4896 5.04225 46.914C5.56199 46.6329 6.14446 46.7025 6.51896 46.799Z" fill="#C5081D"/>
<path d="M6.5678 46.8551C6.76998 46.9071 6.97337 46.7843 7.02452 46.5789C7.118 46.2041 7.33204 45.6588 7.81555 45.3331C8.80632 44.6663 9.9268 44.9892 10.4651 45.7927C10.9973 46.5866 10.8619 47.675 10.6971 48.459C10.473 49.5245 9.93654 50.7956 9.57421 51.4547C8.83099 51.4646 7.47515 51.3384 6.44632 51.031C5.68939 50.8049 4.68248 50.4075 4.2486 49.5539C3.80924 48.6904 4.06348 47.5355 5.1124 46.9683C5.62484 46.6918 6.19878 46.7601 6.5678 46.8551Z" fill="#C3061C"/>
<path d="M6.60802 46.9151C6.80715 46.9664 7.00749 46.8452 7.05804 46.6429C7.14999 46.2737 7.36099 45.7364 7.8375 45.4157C8.81365 44.7588 9.91769 45.0767 10.4481 45.8685C10.9724 46.6507 10.839 47.7233 10.6768 48.4955C10.456 49.5452 9.92743 50.7978 9.57059 51.447C8.83832 51.4569 7.50257 51.3322 6.48866 51.0295C5.74269 50.8068 4.75101 50.4149 4.32352 49.5743C3.89086 48.7235 4.14145 47.5856 5.17484 47.0271C5.67875 46.754 6.24447 46.8214 6.60802 46.9151Z" fill="#C0051A"/>
<path d="M6.64551 46.9745C6.84159 47.0249 7.0392 46.9055 7.08883 46.7064C7.17956 46.3427 7.38721 45.8132 7.85641 45.4974C8.81795 44.8501 9.90524 45.1637 10.4277 45.9434C10.9441 46.7141 10.8129 47.7703 10.653 48.5311C10.4356 49.5653 9.91499 50.7988 9.56331 51.4384C8.84201 51.4479 7.52636 51.3255 6.52767 51.027C5.79297 50.8077 4.8159 50.4217 4.39481 49.5935C3.96854 48.7553 4.21517 47.6348 5.23334 47.0843C5.72994 46.8159 6.28714 46.8823 6.64551 46.9745Z" fill="#BE0318"/>
<path d="M6.67872 47.0309C6.87206 47.0807 7.06632 46.9632 7.11534 46.7668C7.20455 46.4087 7.40916 45.8872 7.87136 45.5761C8.81828 44.9387 9.88913 45.2473 10.4037 46.0153C10.9125 46.7742 10.7831 47.8143 10.6254 48.5634C10.4113 49.5819 9.89857 50.7967 9.55208 51.4267C8.84173 51.4363 7.54587 51.3154 6.56241 51.0219C5.83897 50.8057 4.87652 50.4259 4.46213 49.6103C4.04225 48.7852 4.28522 47.6813 5.28787 47.1392C5.77716 46.8744 6.32583 46.94 6.67872 47.0309Z" fill="#BC0217"/>
<path d="M6.72695 47.0879C6.91725 47.1368 7.10847 47.0211 7.15688 46.8278C7.24487 46.4749 7.44644 45.9619 7.90132 45.6557C8.83364 45.0281 9.88804 45.3322 10.3947 46.088C10.8956 46.8353 10.7683 47.8593 10.613 48.5969C10.402 49.5996 9.89748 50.7956 9.55647 51.416C8.85708 51.4253 7.58132 51.3065 6.61308 51.0173C5.9006 50.8046 4.95337 50.4306 4.54507 49.6274C4.13159 48.815 4.37091 47.7281 5.35802 47.1946C5.8394 46.9342 6.37954 46.9986 6.72695 47.0879Z" fill="#BA0015"/>
<g style="mix-blend-mode:color-dodge">
<path d="M3.01318 46.5474C2.41671 47.1326 2.20906 48.0988 2.98365 49.2128C3.94702 50.5987 6.05766 50.963 6.6112 51.0174C7.16474 51.0719 6.32286 50.9488 4.85832 50.0104C3.39378 49.0721 3.38495 47.9073 3.67146 47.1456C3.95828 46.3841 3.39409 46.1741 3.01318 46.5474Z" fill="url(#paint4_linear_6956_34695)"/>
</g>
<g filter="url(#filter2_d_6956_34695)">
<path d="M28.5046 33.9653C29.2067 34.4348 30.1418 34.239 30.6037 33.5255C31.4471 32.2228 32.9719 30.4334 35.2366 29.842C39.8771 28.6312 43.7254 31.3646 44.7314 35.1474C45.7259 38.8857 43.7952 42.85 42.1479 45.6147C39.9088 49.3727 36.2131 53.4945 33.9755 55.5188C31.1319 54.5594 26.1321 52.2596 22.612 49.708C20.0225 47.831 16.7049 44.9661 16.1617 41.1335C15.6115 37.2551 18.0817 33.1974 22.8142 32.4446C25.1249 32.0772 27.2227 33.108 28.5046 33.9653Z" fill="#FC3248"/>
<path d="M28.5496 34.1589C29.2444 34.6235 30.1694 34.4299 30.6264 33.7238C31.461 32.435 32.9697 30.6641 35.2103 30.0792C39.8019 28.8811 43.6096 31.5857 44.605 35.3286C45.5891 39.0276 43.6788 42.9499 42.0489 45.6852C39.8332 49.4037 36.1764 53.4818 33.9626 55.4847C31.1489 54.5355 26.2021 52.2599 22.7188 49.7352C20.1567 47.878 16.8738 45.0434 16.3367 41.2513C15.7923 37.4141 18.2363 33.399 22.9192 32.6543C25.2055 32.2906 27.2811 33.3106 28.5496 34.1589Z" fill="#FA3046"/>
<path d="M28.6057 34.3548C29.2932 34.8144 30.2081 34.6226 30.6606 33.9243C31.4863 32.6491 32.9789 30.8973 35.1958 30.3184C39.7383 29.1329 43.5056 31.8088 44.4903 35.5118C45.4637 39.1712 43.5738 43.0517 41.9613 45.7579C39.7693 49.4365 36.1515 53.4714 33.9614 55.4529C31.1779 54.514 26.2834 52.2624 22.8376 49.765C20.3026 47.9275 17.055 45.1233 16.5234 41.3714C15.9848 37.575 18.4029 33.6029 23.0355 32.8659C25.2972 32.5065 27.3509 33.5154 28.6057 34.3548Z" fill="#F82F45"/>
<path d="M28.6542 34.5484C29.3341 35.003 30.2397 34.8134 30.6869 34.1225C31.5038 32.861 32.9803 31.1281 35.1731 30.5556C39.6666 29.3828 43.3934 32.0299 44.3674 35.693C45.3305 39.3132 43.4607 43.1516 41.8658 45.8288C39.6973 49.4678 36.1185 53.4593 33.9521 55.4195C31.1985 54.4908 26.357 52.2633 22.9483 49.7928C20.4406 47.9752 17.2278 45.2009 16.7023 41.4899C16.1694 37.7343 18.5614 33.8052 23.1444 33.0762C25.3814 32.7199 27.4126 33.7183 28.6542 34.5484Z" fill="#F62D43"/>
<path d="M28.6991 34.7422C29.3717 35.1919 30.2672 35.0045 30.7096 34.3209C31.5174 33.0733 32.978 31.359 35.1471 30.7927C39.5918 29.6329 43.2775 32.2509 44.2412 35.8742C45.1939 39.4547 43.3445 43.2517 41.767 45.8995C39.6223 49.4989 36.0824 53.4468 33.9395 55.3857C31.2159 54.4668 26.4271 52.2638 23.0553 49.8202C20.5751 48.0224 17.3972 45.2784 16.8772 41.6076C16.3504 37.8928 18.7162 34.0064 23.249 33.2855C25.4622 32.9338 27.4712 33.921 28.6991 34.7422Z" fill="#F32C41"/>
<path d="M28.7597 34.9387C29.425 35.3835 30.3104 35.1979 30.748 34.5221C31.5469 33.2881 32.9914 31.5929 35.1364 31.0328C39.5322 29.8857 43.1774 32.475 44.1304 36.0583C45.0724 39.5996 43.2434 43.3545 41.6833 45.9735C39.5623 49.5333 36.0611 53.4377 33.9419 55.3552C31.2482 54.4466 26.5121 52.268 23.1778 49.851C20.7246 48.0729 17.5821 45.3593 17.0678 41.7286C16.5468 38.055 18.8864 34.2113 23.3696 33.4981C25.5582 33.1501 27.5452 34.1265 28.7597 34.9387Z" fill="#F12A40"/>
<path d="M28.808 35.1303C29.4657 35.5701 30.3414 35.3867 30.7743 34.7184C31.5644 33.4983 32.9928 31.8217 35.114 31.268C39.4608 30.1336 43.0655 32.6944 44.0078 36.2376C44.9395 39.7392 43.1309 43.4524 41.5882 46.042C39.4906 49.5623 36.0287 53.423 33.933 55.3192C31.2694 54.4208 26.5859 52.2663 23.2887 49.8762C20.863 48.1179 17.7552 45.4343 17.2467 41.8445C16.7315 38.2117 19.0452 34.411 23.4781 33.7055C25.6424 33.3616 27.6072 34.3271 28.808 35.1303Z" fill="#EF283E"/>
<path d="M28.8533 35.3241C29.5037 35.759 30.3696 35.5777 30.7974 34.9168C31.5787 33.7103 32.9908 32.0529 35.0881 31.5051C39.3858 30.3837 42.95 32.9155 43.8817 36.4187C44.8027 39.8811 43.0145 43.5525 41.4891 46.1131C39.4153 49.5937 35.9924 53.4111 33.9201 55.2857C31.2864 54.3974 26.6559 52.2671 23.3955 49.9042C20.9972 48.1658 17.9244 45.5124 17.4217 41.9628C16.9123 38.3709 19.1998 34.6128 23.5831 33.9157C25.723 33.5755 27.6658 34.5302 28.8533 35.3241Z" fill="#ED273C"/>
<path d="M28.91 35.5197C29.553 35.9496 30.4089 35.7702 30.8318 35.117C31.604 33.9244 33 32.2855 35.0738 31.7443C39.3228 30.6355 42.8462 33.1385 43.7673 36.6022C44.678 40.025 42.9102 43.6547 41.4018 46.1858C39.3514 49.6266 35.9675 53.4007 33.9189 55.2542C31.3154 54.3759 26.7375 52.27 23.5143 49.934C21.1434 48.2153 18.1056 45.5923 17.6084 42.0832C17.1048 38.5324 19.3664 34.817 23.6995 34.1276C25.8156 33.7908 27.7362 34.7347 28.91 35.5197Z" fill="#EB253B"/>
<path d="M28.9625 35.7133C29.5979 36.1382 30.4441 35.961 30.8624 35.3152C31.6257 34.1363 33.0059 32.5166 35.0554 31.9815C39.2553 30.8854 42.7383 33.3597 43.6486 36.7834C44.5487 40.1669 42.8013 43.7546 41.3106 46.2566C39.284 49.6578 35.939 53.3883 33.9139 55.2205C31.3404 54.3524 26.815 52.2706 23.6292 49.9615C21.2854 48.2626 18.2826 45.6696 17.7912 42.201C17.2934 38.691 19.5288 35.0183 23.8122 34.337C25.9034 34.0045 27.8021 34.9373 28.9625 35.7133Z" fill="#E92339"/>
<path d="M29.0071 35.909C29.6353 36.329 30.4717 36.154 30.8848 35.5156C31.6393 34.3503 33.0034 32.7494 35.0291 32.2206C39.18 31.1375 42.6225 33.5826 43.5225 36.9665C44.4122 40.3104 42.6849 43.8563 41.2115 46.3293C39.2083 49.6909 35.9026 53.3778 33.901 55.1886C31.3574 54.3307 26.8849 52.2734 23.736 49.9909C21.4196 48.3118 18.4518 45.7491 17.9662 42.321C17.4741 38.8518 19.6837 35.2221 23.9169 34.5488C25.984 34.2201 27.8602 35.1423 29.0071 35.909Z" fill="#E72238"/>
<path d="M29.0671 36.1036C29.688 36.5187 30.5143 36.3455 30.9226 35.7148C31.6683 34.5634 33.0162 32.9814 35.0181 32.4587C39.1201 31.3883 42.522 33.8047 43.4114 37.1487C44.2904 40.4533 42.5838 43.9575 41.1278 46.4014C39.1484 49.7234 35.8813 53.367 33.9038 55.1562C31.39 54.3081 26.9705 52.2752 23.8587 50.0197C21.5697 48.3604 18.6369 45.828 18.1568 42.4401C17.6705 39.0118 19.8539 35.4251 24.0375 34.7595C26.0796 34.4347 27.9339 35.3459 29.0671 36.1036Z" fill="#E52036"/>
<path d="M29.116 36.2965C29.7295 36.7066 30.5458 36.5356 30.9493 35.9124C31.6861 34.7746 33.0176 33.2115 34.9958 32.695C39.049 31.6372 42.4101 34.0249 43.2888 37.3289C44.1575 40.594 42.471 44.0564 41.0323 46.4712C39.0767 49.7536 35.8486 53.3536 33.8945 55.1218C31.4109 54.284 27.0437 52.2752 23.9694 50.0465C21.7075 48.407 18.8097 45.9049 18.3357 42.5573C17.8552 39.1701 20.0127 35.626 24.146 34.9682C26.1641 34.6475 27.9961 35.5478 29.116 36.2965Z" fill="#E21F34"/>
<path d="M29.1571 36.4911C29.763 36.8963 30.5696 36.7274 30.9684 36.1116C31.6961 34.9877 33.0118 33.4435 34.9659 32.9332C38.9701 31.8881 42.2907 34.247 43.1588 37.5111C44.0168 40.7369 42.351 44.1572 40.9297 46.543C38.9975 49.7858 35.8084 53.3422 33.878 55.0891C31.4245 54.2614 27.1101 52.2768 24.0726 50.0753C21.838 48.4556 18.9753 45.9835 18.5068 42.6767C18.0321 39.3303 20.1634 35.8289 24.2471 35.1795C26.2408 34.8618 28.0509 35.7513 29.1571 36.4911Z" fill="#E01D33"/>
<path d="M29.2174 36.6836C29.816 37.0838 30.6128 36.9168 31.0065 36.3088C31.7253 35.1985 33.0249 33.6731 34.9552 33.1693C38.9104 32.1372 42.1905 34.467 43.048 37.6913C43.8956 40.8775 42.2499 44.2564 40.846 46.6128C38.9375 49.8157 35.7874 53.3288 33.8804 55.0542C31.4568 54.2365 27.1953 52.2763 24.195 50.1017C21.9879 48.5018 19.1602 46.0601 18.6974 42.7935C18.2285 39.4879 20.3339 36.0295 24.3673 35.3877C26.3367 35.0744 28.1246 35.9531 29.2174 36.6836Z" fill="#DE1B31"/>
<path d="M29.2659 36.8785C29.8569 37.2738 30.644 37.1089 31.0328 36.5083C31.7429 35.4119 33.0262 33.9051 34.9329 33.4075C38.839 32.3881 42.0787 34.6891 42.9254 37.8735C43.7627 41.0204 42.1374 44.3572 40.7508 46.6845C38.8658 49.8479 35.755 53.3177 33.8715 55.0215C31.4777 54.214 27.2692 52.2779 24.306 50.1302C22.1259 48.5501 19.3333 46.1387 18.8763 42.9126C18.4131 39.6478 20.4924 36.2321 24.4762 35.5987C26.4212 35.2891 28.1869 36.157 29.2659 36.8785Z" fill="#DC1A2F"/>
<path d="M29.3109 37.0741C29.8946 37.4644 30.6716 37.3017 31.0559 36.7085C31.7571 35.6257 33.0243 34.1381 34.9069 33.6466C38.7643 32.6399 41.9629 34.9122 42.7993 38.0566C43.6259 41.164 42.021 44.4591 40.6518 46.7573C38.7905 49.881 35.7183 53.3072 33.8586 54.9897C31.4949 54.1924 27.3388 52.2804 24.4128 50.1597C22.2601 48.5997 19.5025 46.2182 19.0512 43.0323C18.5939 39.8087 20.6473 36.4357 24.5809 35.81C26.5015 35.5048 28.2449 36.3615 29.3109 37.0741Z" fill="#DA182E"/>
<path d="M29.3715 37.2666C29.9479 37.6519 30.7149 37.4911 31.0943 36.9056C31.7863 35.8365 33.0377 34.3677 34.8963 33.8827C38.7047 32.889 41.8627 35.1322 42.6885 38.2368C43.5048 41.3048 41.9203 44.5582 40.5684 46.827C38.7306 49.9112 35.6977 53.2938 33.8613 54.9552C31.5278 54.1681 27.4244 52.2806 24.5355 50.1864C22.4102 48.6462 19.6873 46.2948 19.2419 43.1497C18.7903 39.9669 20.8175 36.6369 24.7014 36.0189C26.598 35.7171 28.3192 36.563 29.3715 37.2666Z" fill="#D8172C"/>
<path d="M29.4201 37.4605C29.9892 37.8409 30.7464 37.6822 31.1206 37.1042C31.8038 36.0489 33.0391 34.599 34.8739 34.1199C38.6333 33.1389 41.7508 35.3534 42.5659 38.418C43.3716 41.4465 41.8075 44.658 40.4729 46.8979C38.6589 49.9424 35.6649 53.2814 33.8521 54.9215C31.5484 54.1443 27.4979 52.2812 24.6462 50.2143C22.5483 48.6935 19.8604 46.3727 19.4207 43.2678C18.975 40.1259 20.9763 36.8385 24.8103 36.2286C26.6822 35.9311 28.3815 36.7661 29.4201 37.4605Z" fill="#D6152A"/>
<path d="M29.4651 37.657C30.0265 38.0325 30.774 37.876 31.1434 37.3053C31.8178 36.2637 33.0369 34.8326 34.8476 34.3601C38.558 33.3917 41.635 35.5777 42.4395 38.6021C43.2348 41.5913 41.6908 44.7608 40.3739 46.9716C38.5836 49.9762 35.6283 53.2722 33.8395 54.8907C31.566 54.1237 27.5682 52.2847 24.7533 50.2447C22.6825 48.7441 20.0299 46.4532 19.5957 43.3889C19.1558 40.2877 21.1309 37.0434 24.915 36.4415C26.7628 36.1474 28.4399 36.9716 29.4651 37.657Z" fill="#D41329"/>
<path d="M29.5212 37.8485C30.0753 38.219 30.8127 38.0644 31.1775 37.5015C31.8431 36.4738 33.0461 35.0616 34.8331 34.5952C38.4944 33.6398 41.531 35.7968 42.3247 38.7813C43.1094 41.7309 41.5861 44.859 40.2863 47.0403C38.5194 50.0054 35.6034 53.2578 33.838 54.8549C31.5943 54.0981 27.6492 52.2832 24.8718 50.2701C22.8284 48.7893 20.2108 46.5288 19.7824 43.5046C19.3483 40.4446 21.2975 37.243 25.0316 36.6488C26.8545 36.3587 28.5097 37.1721 29.5212 37.8485Z" fill="#D11227"/>
<path d="M29.5739 38.0424C30.1205 38.408 30.8485 38.2555 31.2081 37.7001C31.8645 36.6859 33.0517 35.2926 34.8146 34.8324C38.4272 33.8897 41.423 36.0179 42.2061 38.9625C42.9804 41.8729 41.4772 44.9589 40.195 47.1111C38.4519 50.0366 35.5746 53.2454 33.833 54.8212C31.6194 54.0743 27.727 52.2839 24.9867 50.2977C22.9707 48.8366 20.3879 46.6061 19.9652 43.6225C19.5368 40.6033 21.4599 37.4443 25.1441 36.8585C26.943 36.5727 28.5759 37.375 29.5739 38.0424Z" fill="#CF1025"/>
<path d="M29.6192 38.239C30.1585 38.5996 30.8764 38.4493 31.2311 37.9012C31.8788 36.901 33.0498 35.5266 34.7889 35.0725C38.3526 34.1425 41.3078 36.2419 42.0803 39.1467C42.8439 42.0174 41.3614 45.0617 40.0963 47.1849C38.3766 50.0708 35.5386 53.236 33.8204 54.7907C31.6367 54.054 27.7972 52.2877 25.0938 50.3284C23.1049 48.8872 20.5574 46.6869 20.1402 43.7438C19.7176 40.7655 21.6145 37.6495 25.2491 37.0714C27.0239 36.7891 28.6348 37.5808 29.6192 38.239Z" fill="#CD0F24"/>
<path d="M29.6713 38.4315C30.2033 38.7871 30.9112 38.6387 31.2613 38.0984C31.9001 37.1118 33.055 35.7562 34.7701 35.3087C38.2847 34.3917 41.1995 36.462 41.9613 39.3268C42.7145 42.1583 41.2521 45.1605 40.0047 47.2546C38.3087 50.1009 35.5097 53.2228 33.815 54.7559C31.6614 54.0294 27.8743 52.2875 25.2083 50.3548C23.2469 48.9334 20.734 46.7635 20.323 43.8606C19.9064 40.9233 21.7771 37.85 25.3614 37.2797C27.1116 37.0017 28.7003 37.7823 29.6713 38.4315Z" fill="#CB0D22"/>
<path d="M29.728 38.6283C30.2523 38.979 30.9508 38.8327 31.2958 38.2999C31.9257 37.3269 33.0645 35.9905 34.7559 35.5488C38.2214 34.6445 41.0957 36.686 41.8468 39.511C42.5895 42.3029 41.1475 45.2636 39.9174 47.3284C38.2452 50.1351 35.4848 53.2133 33.8138 54.7251C31.6901 54.0088 27.956 52.2911 25.3271 50.3853C23.3931 48.9836 20.9152 46.8437 20.5097 43.9816C20.0989 41.0852 21.9434 38.0546 25.4781 37.4923C27.2039 37.218 28.7704 37.9878 29.728 38.6283Z" fill="#C90B21"/>
<path d="M29.7841 38.8219C30.3011 39.1677 30.9895 39.0236 31.3296 38.4981C31.9508 37.539 33.0734 36.2212 34.7407 35.786C38.1575 34.8944 40.991 36.9072 41.7318 39.6922C42.4641 42.4448 41.0425 45.3635 39.8297 47.3992C38.181 50.1663 35.4599 53.201 33.8123 54.6914C31.7188 53.985 28.0373 52.2917 25.4456 50.4131C23.539 49.0312 21.0961 46.9216 20.6964 44.0998C20.2914 41.2442 22.1101 38.2565 25.5945 37.7023C27.2956 37.4317 28.8399 38.1907 29.7841 38.8219Z" fill="#C70A1F"/>
<path d="M29.8294 39.0147C30.3391 39.3556 31.0175 39.2133 31.3527 38.6956C31.9647 37.7501 33.0715 36.4514 34.715 36.0221C38.0829 35.1435 40.8758 37.1272 41.606 39.8727C42.3279 42.5857 40.9264 45.4626 39.731 47.4692C38.106 50.1964 35.4236 53.1878 33.7998 54.6569C31.736 53.9607 28.1076 52.2915 25.5527 50.4398C23.6732 49.0778 21.2657 46.9985 20.8714 44.2171C20.4722 41.4024 22.2646 38.4577 25.6995 37.9112C27.3765 37.6443 28.8989 38.3925 29.8294 39.0147Z" fill="#C5081D"/>
<path d="M29.8777 39.2113C30.38 39.5471 31.0487 39.407 31.379 38.8967C31.9822 37.9652 33.0729 36.6851 34.6924 36.2623C38.0112 35.3963 40.7636 37.3512 41.4831 40.0568C42.1944 42.7306 40.8136 45.5657 39.6356 47.543C38.034 50.2306 35.3908 53.1787 33.7905 54.6264C31.7569 53.9404 28.1808 52.2953 25.6634 50.4706C23.8112 49.1283 21.4385 47.0793 21.0502 44.3382C20.6569 41.5646 22.4234 38.6623 25.808 38.1241C27.4604 37.8606 28.9606 38.598 29.8777 39.2113Z" fill="#C3061C"/>
<path d="M29.9383 39.4049C30.433 39.7358 31.0919 39.5978 31.4174 39.095C32.0118 38.177 33.0863 36.9161 34.682 36.4995C37.9518 35.6462 40.6638 37.5724 41.3726 40.2381C42.0735 42.8722 40.7128 45.6656 39.5521 47.6138C37.9743 50.2618 35.3701 53.1663 33.7936 54.5927C31.7898 53.9166 28.2667 52.296 25.7861 50.4981C23.9614 49.1756 21.6236 47.1566 21.2409 44.456C20.8533 41.7232 22.5937 38.8639 25.9286 38.3335C27.5566 38.0743 29.0349 38.8005 29.9383 39.4049Z" fill="#C0051A"/>
<path d="M29.979 39.5968C30.4665 39.9228 31.1153 39.7867 31.4359 39.2916C32.0215 38.3875 33.0798 37.1451 34.6515 36.7347C37.8726 35.8941 40.5435 37.7915 41.2419 40.4173C41.9322 43.0122 40.5922 45.7635 39.4489 47.6826C37.8945 50.2911 35.3293 53.1519 33.7765 54.557C31.8028 53.8911 28.3324 52.2949 25.889 50.5237C24.0913 49.221 21.7886 47.2323 21.4119 44.5722C21.0301 41.8802 22.7446 39.0639 26.0293 38.5412C27.6333 38.2861 29.0893 39.0018 29.979 39.5968Z" fill="#BE0318"/>
<path d="M30.0315 39.7932C30.5114 40.1143 31.1505 39.9803 31.4665 39.4926C32.0429 38.6022 33.0854 37.379 34.6334 36.9748C37.8054 36.1471 40.4358 38.0155 41.1236 40.6014C41.8035 43.1566 40.4836 45.8666 39.3577 47.7563C37.827 50.3251 35.3008 53.1424 33.7714 54.5261C31.8276 53.8704 28.4099 52.2983 26.0039 50.5543C24.2336 49.2714 21.9659 47.3131 21.5947 44.6932C21.2187 42.042 22.907 39.2684 26.1421 38.7537C27.7211 38.5026 29.1552 39.2071 30.0315 39.7932Z" fill="#BC0217"/>
<path d="M30.0879 39.9871C30.5604 40.3032 31.1898 40.1715 31.5007 39.6912C32.0682 38.8143 33.0946 37.61 34.6185 37.212C37.7415 36.397 40.3314 38.2366 41.0086 40.7826C41.6778 43.2986 40.3786 45.9664 39.27 47.8271C37.7632 50.3564 35.2759 53.1303 33.7699 54.4927C31.8563 53.8472 28.4912 52.2993 26.1224 50.5821C24.3795 49.319 22.1468 47.3907 21.7814 44.8116C21.4112 42.2016 23.0736 39.4706 26.2585 38.964C27.8134 38.7163 29.225 39.41 30.0879 39.9871Z" fill="#BA0015"/>
<g style="mix-blend-mode:color-dodge">
<path d="M20.4706 34.9527C18.3012 35.9746 16.8376 38.4074 17.9112 42.1856C19.2466 46.8854 24.6578 49.903 26.1147 50.5822C27.5717 51.2617 25.3937 50.1183 22.2762 46.157C19.1586 42.1955 20.2185 39.0136 21.7077 37.2139C23.1972 35.4148 21.8554 34.3005 20.4706 34.9527Z" fill="url(#paint5_linear_6956_34695)"/>
</g>
</g>
<defs>
<filter id="filter0_d_6956_34695" x="0.488281" y="12.3799" width="36.6914" height="34.1719" filterUnits="userSpaceOnUse" color-interpolation-filters="sRGB">
<feFlood flood-opacity="0" result="BackgroundImageFix"/>
<feColorMatrix in="SourceAlpha" type="matrix" values="0 0 0 0 0 0 0 0 0 0 0 0 0 0 0 0 0 0 127 0" result="hardAlpha"/>
<feOffset dx="2" dy="2"/>
<feGaussianBlur stdDeviation="2"/>
<feComposite in2="hardAlpha" operator="out"/>
<feColorMatrix type="matrix" values="0 0 0 0 0 0 0 0 0 0 0 0 0 0 0 0 0 0 0.35 0"/>
<feBlend mode="normal" in2="BackgroundImageFix" result="effect1_dropShadow_6956_34695"/>
<feBlend mode="normal" in="SourceGraphic" in2="effect1_dropShadow_6956_34695" result="shape"/>
</filter>
<filter id="filter1_d_6956_34695" x="32.8555" y="14.4375" width="17.7344" height="17.124" filterUnits="userSpaceOnUse" color-interpolation-filters="sRGB">
<feFlood flood-opacity="0" result="BackgroundImageFix"/>
<feColorMatrix in="SourceAlpha" type="matrix" values="0 0 0 0 0 0 0 0 0 0 0 0 0 0 0 0 0 0 127 0" result="hardAlpha"/>
<feOffset dx="2" dy="2"/>
<feGaussianBlur stdDeviation="2"/>
<feComposite in2="hardAlpha" operator="out"/>
<feColorMatrix type="matrix" values="0 0 0 0 0 0 0 0 0 0 0 0 0 0 0 0 0 0 0.35 0"/>
<feBlend mode="normal" in2="BackgroundImageFix" result="effect1_dropShadow_6956_34695"/>
<feBlend mode="normal" in="SourceGraphic" in2="effect1_dropShadow_6956_34695" result="shape"/>
</filter>
<filter id="filter2_d_6956_34695" x="14.0859" y="27.5518" width="36.918" height="33.9668" filterUnits="userSpaceOnUse" color-interpolation-filters="sRGB">
<feFlood flood-opacity="0" result="BackgroundImageFix"/>
<feColorMatrix in="SourceAlpha" type="matrix" values="0 0 0 0 0 0 0 0 0 0 0 0 0 0 0 0 0 0 127 0" result="hardAlpha"/>
<feOffset dx="2" dy="2"/>
<feGaussianBlur stdDeviation="2"/>
<feComposite in2="hardAlpha" operator="out"/>
<feColorMatrix type="matrix" values="0 0 0 0 0 0 0 0 0 0 0 0 0 0 0 0 0 0 0.35 0"/>
<feBlend mode="normal" in2="BackgroundImageFix" result="effect1_dropShadow_6956_34695"/>
<feBlend mode="normal" in="SourceGraphic" in2="effect1_dropShadow_6956_34695" result="shape"/>
</filter>
<linearGradient id="paint0_linear_6956_34695" x1="16" y1="40.5" x2="328.002" y2="40.5" gradientUnits="userSpaceOnUse">
<stop stop-color="#D12288"/>
<stop offset="0.5" stop-color="#FF68C0"/>
<stop offset="1" stop-color="#D12288"/>
</linearGradient>
<linearGradient id="paint1_linear_6956_34695" x1="-0.311355" y1="15.8234" x2="11.9152" y2="26.7754" gradientUnits="userSpaceOnUse">
<stop stop-color="#FFB731"/>
<stop offset="1"/>
</linearGradient>
<linearGradient id="paint2_linear_6956_34695" x1="12.6625" y1="5.99101" x2="20.9585" y2="7.6084" gradientUnits="userSpaceOnUse">
<stop stop-color="#FFB731"/>
<stop offset="1"/>
</linearGradient>
<linearGradient id="paint3_linear_6956_34695" x1="34.2427" y1="16.4432" x2="37.9067" y2="20.8169" gradientUnits="userSpaceOnUse">
<stop stop-color="#FFB731"/>
<stop offset="1"/>
</linearGradient>
<linearGradient id="paint4_linear_6956_34695" x1="0.617468" y1="49.0309" x2="6.25648" y2="48.6226" gradientUnits="userSpaceOnUse">
<stop stop-color="#FFB731"/>
<stop offset="1"/>
</linearGradient>
<linearGradient id="paint5_linear_6956_34695" x1="11.6351" y1="39.4199" x2="27.4177" y2="43.5586" gradientUnits="userSpaceOnUse">
<stop stop-color="#FFB731"/>
<stop offset="1"/>
</linearGradient>
</defs>
</svg>
